<svg width="708" height="348" viewBox="0 0 708 348" fill="none" xmlns="http://www.w3.org/2000/svg">
<path d="M127.792 250.211L128.657 250.665L130.85 250.612L131.813 251.982L131.706 252.775L132.277 252.997L135.379 252.383L135.718 252.908L137.617 253.407L139.454 254.573L139.623 255.436L141.674 256.344L144.572 255.943L145.588 259.397L146.399 260.314L148.236 260.67L151.446 260.367L152.516 259.557L152.569 256.816L153.282 256.308H154.611L155.886 257.02L157.009 259.611L157.571 261.444L156.599 263.723L157.526 264.524L158.284 266.892H158.997L160.477 264.96L162.564 263.536L162.92 263.794L165.363 262.014L166.175 261.658L166.843 261.925L167.325 261.489L167.352 260.082L166.077 259.166L167.057 257.608L169.696 257.341L172.291 258.916L173.379 259.094L175.804 256.78L178.398 256.575L178.158 254.911L181.198 253.46L186.931 251.885H188.179L189.008 252.552L189.338 253.549L188.429 257.279L189.757 258.934V259.602L187.35 261.346L187.929 262.014L191.754 263.509L192.753 264.417L193.172 265.574V266.731L190.515 269.055L193.252 269.963L194.081 270.541L194.411 271.449L193.662 273.932L194.821 275.588L194.901 276.665L193.493 280.225L193.573 281.383L197.059 282.05L199.386 283.545L201.134 287.943L202.542 289.767H203.701L204.7 288.521L205.449 288.272L206.858 288.85L207.107 289.678L208.017 290.426L207.107 291.423L208.436 292.34L210.433 294.743L211.012 296.977L210.183 297.556L209.934 299.3L207.776 300.707L202.961 302.282L202.293 303.11L200.135 303.359L198.058 305.842L194.982 306.59L194.153 307.258L191.326 308.086L189.418 307.009L186.512 306.759L185.014 306.928L181.777 308.424L180.369 306.928L176.963 306.848L173.807 304.365L171.399 304.036L168.573 304.454L166.496 302.709L163.509 302.291L162.011 301.623L161.012 300.876L160.593 299.469L157.018 298.971L155.52 301.873L154.441 302.54L149.377 303.039L148.628 303.537L146.221 307.765L145.891 310.337L145.017 311.53L143.76 310.729L143.047 310.783L143.101 311.904L139.436 312.767L138.821 314.548L138.206 314.904L135.558 314.646L133.703 315.358L133.213 317.387L131.635 319.265L130.003 319.06L129.388 317.894H128.675L125.01 319.933L120.16 319.319L118.734 319.621L118.074 320.075L117.717 321.241L117.262 326.226L115.836 328.006L114.507 328.309L112.519 328.006L109.06 326.128L107.428 329.279L105.948 328.976L105.235 328.059L104.317 327.908L102.435 329.635L100.804 329.733L98.4054 328.923L96.4707 327.249L97.0146 322.745L95.7574 321.001L92.6993 319.328L90.3545 314.192L89.4896 313.577L84.7464 312.67L82.7136 310.48L81.8487 310.631L81.1355 311.646L79.1473 311.904L78.1041 312.999L75.991 312.714L74.7161 314.29L71.5599 312.821L70.6416 314.69L69.3577 315.776L67.8866 318.153L64.8284 318.099L64.0171 317.387L63.812 315.607L62.3855 314.387L61.5742 314.334L59.4878 315.856L58.623 315.758L55.5649 312.963L53.3092 314.263L52.7921 315.313L50.8752 314.904L49.2525 317.289L47.9775 317.387L46.9076 315.002L45.0264 314.948L42.5299 314.085L41.8167 314.539L41.0499 316.978L39.4361 317.699L34.577 313.978L30.0478 312.456L28.6747 312.509L27.6048 313.524L26.2853 313.675L24.8588 313.266L24.3149 312.616L23.1202 312.91L21.2746 315.358L20.1334 315.456L19.4023 316.123L19.4558 316.835L17.7261 316.782L15.1673 317.601L14.3916 317.022L13.0364 317.645L11.1016 316.987L10.3349 315.464H9.40763L8.85485 317.699L7.67796 318.66L5.94829 317.289L6.00178 315.616L6.76854 314.646L6.97361 313.221L5.09237 307.632L5.03887 304.071L4.47717 302.033L1.98074 298.909V295.589L1.06241 294.796L1 293.835L5.33309 288.931L3.29137 286.056L4.45934 282.646L6.54565 280.946L7.10734 279.62L5.68081 277.484L6.13552 276.87L6.84878 277.172L7.86519 278.899L9.44329 278.748L10.7183 279.665L11.7347 281.24L11.9932 285.005L14.2846 285.361L15.9162 283.964L17.3962 283.688L19.1259 284.249L19.4825 283.839L17.1911 280.332L16.6829 278.196L17.4943 269.651L18.2076 269.09L19.536 269.188L21.4173 270.408L25.9019 268.627L27.275 268.681L27.5781 269.446L28.4964 269.348L30.2261 266.553L33.6854 264.524L37.858 263.153L40.5328 263.251L43.3859 262.539L48.8334 260.349L50.0014 260.403L54.7892 263.198L58.204 266.553L59.2739 266.651L60.0406 265.841L61.057 266.251L61.2621 267.524L62.4301 268.796L66.2995 268.494L67.2714 268.85L69.4647 270.176L71.0963 270.327L71.1943 271.396L71.756 271.903L75.7771 274.093L83.2129 276.078L85.0495 277.244L85.7093 277.858L85.3527 279.131L83.2129 280.297L80.2082 282.842L79.8516 285.895L80.3063 286.963L81.2246 287.115L81.0909 284.694L81.5278 283.1L82.143 282.646L84.0777 282.744L87.9472 280.555L87.7421 278.872L88.9101 277.199L89.5699 271.12L91.5046 270.31L98.7353 268.885L99.7072 267.203L99.5021 265.014L101.232 264.399L101.945 265.014L103.345 264.631L105.556 263.189L110.495 261.204L111.298 259.121L109.666 256.38L110.076 255.409L111.449 254.955L115.782 254.804L118.841 252.926L121.078 250.184L124.03 249.882L127.792 250.211ZM115.533 260.723L116.05 259.726L116.086 258.284L115.435 257.43L114.748 258.284L115.123 260.412L115.533 260.723ZM155.85 262.503L156.073 261.658L154.379 261.168V262.281L154.825 262.414L155.85 262.503ZM113.438 266.18L113.607 268.921L113.09 272.766L113.643 274.822L114.677 276.264L115.979 277.021L118.662 277.43L119.42 277.876L119.554 278.632L119.277 279.763L118.35 280.136L119.554 282.433L117.316 284.596L116.799 286.349L115.702 287.177L115.943 287.791L117.726 287.996L118.93 289.055L119.411 288.468L118.76 287.711L118.93 286.919L119.688 285.993L120.615 286.198L120.445 288.085L120.962 288.361L124.163 287.916L126.294 285.548L126.428 284.934L125.67 284.177L125.804 283.216L125.082 282.771L121.373 282.905L121.301 282.255L122.603 281.667L122.951 280.946L122.746 279.985L121.747 278.89L123.263 278.41L125.224 277.039L125.501 276.451L125.189 275.526L121.578 277.306L120.784 277.235L119.375 271.672L118.065 271.084L117.378 270.194L116.826 267.346L115.417 264.568L113.491 263.643L112.564 264.159L112.733 264.809L113.438 266.18ZM160.397 283.973L162.84 282.264L166.077 282.691L166.933 280.742L162.287 276.896L161.619 277.689L162.35 279.7L161.003 280.795L158.739 281.347L158.498 282.326L160.397 283.973ZM82.348 288.681L81.8042 289.767L83.2485 292.295L83.5338 294.636L84.4611 294.787L86.6009 293.96L87.118 294.271L87.5549 295.143L86.7792 297.306L87.011 298.339L88.9992 297.004L91.1658 293.915L94.1348 292.651L95.5256 290.8L95.1422 289.536L94.1348 289.331L91.3976 290.079L89.1776 290.025L84.3273 288.53L82.348 288.681Z" fill="#F1F3F5" stroke="white" stroke-width="0.445792"/>
<path d="M320.472 2.62888H322.255L324.092 5.01435L325.714 4.86304V5.68193L326.232 6.03797L326.989 6.43852L327.854 6.23379L328.264 6.94587L329.076 6.75005L331.171 9.03761L333.614 9.94551L334.069 10.7644L335.852 10.257L336.922 11.1739L341.308 12.3399L341.709 13.6127L345.534 18.3926L347.362 20.0215L349.047 20.6801L350.117 22.6116L352.506 24.1871L353.781 24.3919L355.261 23.7332L356.126 23.9824L357.633 23.2169L358.498 23.475L362.983 25.5134L363.945 26.4747L370.267 29.777L374.903 31.1032L377.908 33.186L380.805 34.0049L382.892 35.6783L386.868 35.4736L390.586 36.5417H393.377L398.423 37.6633L401.374 37.2538L415.229 40.9121L417.316 37.9125L418.225 37.3695L419.527 31.9933L420.944 30.1864L423.022 28.5575L427.908 27.1868L428.978 27.4894L430.146 29.2696L432.74 29.5722L434.621 31.0498H436.101L441.451 29.5722L445.017 29.6791L445.98 30.4445L450.875 30.5424L451.945 31.1566L452.48 34.6369L453.567 35.2244L455.306 35.3223L463.954 32.8389L464.775 31.2545L465.488 30.7828L470.204 31.5839L471.39 30.9519L473.824 31.5839L478.871 31.5572L480.297 30.6938L480.903 29.6523L481.01 28.1036L481.679 27.4894L485.29 27.2402L486.262 25.5134L487.02 25.4066L491.504 26.1721L493.038 25.2018L495.775 24.8191L496.738 25.2285L498.227 27.4894L499.199 27.3915L501.33 25.5846L505.146 25.8872L506.269 26.1988L506.67 28.0769L508.418 28.3083L511.003 30.3466L510.245 31.5127L507.811 32.1179L504.976 34.6458L503.657 38.8916L502.649 39.3989L500.215 38.9984L490.791 40.2089L489.48 40.6095L488.865 41.3216L486.235 41.0189L482.187 42.8347L480.663 43.0395L476.312 42.4342L473.976 43.4489L471.854 43.1463L470.231 43.8495L467.093 43.3421L465.265 43.7515L464.356 42.9416L462.635 42.8347L462.537 44.8642L460.103 45.1668L458.685 45.87L456.456 45.5673L454.735 47.3921L448.86 51.1305L447.237 52.9552L445.008 53.961L444.705 56.2931L443.796 56.8983L442.476 57.2989L441.059 56.6936H438.116L436.396 57.0942L435.388 57.9041L431.331 58.6162L430.627 59.4262L427.177 59.3194L424.85 59.8268L422.621 58.8209L420.597 58.5094L420.088 59.622L420.597 61.6515L420.49 63.4673L417.351 63.5741L416.139 64.5799H414.819L414.008 65.292L412.697 68.3272L409.452 70.6504L408.337 71.9677L404.789 73.4809L403.478 72.6709L402.364 72.573L401.856 71.6562L401.954 70.7483L401.044 70.5436L400.643 71.2557L399.529 71.763L397.799 72.2704L396.078 71.9677L394.661 72.4662L392.334 70.8551L391.317 72.1636L388.482 72.2704L386.057 73.2762L381.599 71.6562L378.764 72.3683L377.542 71.9677L376.731 71.0509L374.003 72.9736L371.47 73.0804L370.454 71.5583L369.438 71.2557L367.414 72.3683L362.858 71.6562L361.841 72.1636L355.056 72.7688L355.36 74.193L357.383 76.5162L358.097 78.4388L359.309 80.0499L359.719 82.3819L358.801 83.0851L357.187 82.6846L353.844 83.0851L352.319 83.7972L350.197 86.5298L347.763 88.4435L345.231 88.043L340.818 89.6095L338.687 89.5116L335.852 90.2148L333.721 89.7163L331.296 90.5174L328.862 90.7222L326.125 90.2148L324.404 98.2079L325.42 99.1158L328.353 100.433L328.657 101.341L327.845 101.644L327.034 102.961L325.723 103.264L324.502 104.278L324.003 105.284L324.805 108.319L324.199 109.833L321.774 111.052L320.918 115.957L319.197 116.259L317.066 115.654L315.854 116.161L314.837 117.069L313.223 121.92L312.109 122.73L310.789 121.217L312.305 116.864L311.904 116.357L308.462 116.962L307.143 116.66L306.536 115.244L304.102 113.019L303.095 111.408L301.57 112.921L300.554 112.717L298.94 113.429H294.375L293.671 112.823L291.041 113.429L290.443 113.099L290.381 111.275L289.837 110.669L289.427 108.702L288.482 108.23L285.629 107.821L278.247 109.583L277.159 108.773L276.276 108.702L275.527 109.512L273.566 109.316L272.416 108.097L270.579 108.23L264.48 106.335L263.188 106.673L261.77 105.453L261.021 102.409L259.933 100.923L252.952 99.0268L250.055 99.2938L248.066 98.5105L247.745 96.9529L248.182 94.4962L245.285 93.4459L244.063 91.7814L244.322 87.2241L245.026 86.6099L248.887 87.8382L252.836 84.4203L253.799 84.2422L255.119 84.7763L258.275 83.637L261.966 84.5983L264.329 82.4976L268.02 82.2306L271.97 83.5479L278.55 81.2693L279.602 80.041L279.78 77.2371L282.241 74.2553L282.856 72.4217V70.7572L280.832 69.3508L279.691 70.3122L278.728 70.143L278.113 68.4785L277.15 67.5083L275.92 67.7754L275.83 69.698L274.867 72.6798L274.163 72.9469L273.2 72.4573L273.316 71.1221L270.927 68.8346L268.582 64.2773L267.512 60.3697L267.565 55.5899L269.054 51.7179L269.349 49.0387L271.283 45.2647L272.745 43.4311L273.414 36.6485L273.013 33.5421L272.157 31.5572L272.567 29.6256L274.903 27.2847L274.796 23.1724L275.518 21.3922L278.674 20.6267L281.028 19.345L282.954 17.4758L286.217 15.7935L290.14 12.9006L290.729 13.6572L291.95 14.0667L292.815 13.1499L297.674 13.6127L299.047 12.2331L299.332 11.2985L299.823 11.4498L301.936 5.37039L304.887 6.43852L306.055 8.37003L307.642 9.18003L308.962 8.72608L310.335 7.45323L316.906 7.10609L317.877 6.64324L318.279 5.68193L316.451 2.42416L316.852 1L318.439 2.12153L320.472 2.62888Z" fill="#F1F3F5" stroke="white" stroke-width="0.445792"/>
<path d="M193.627 90.9095L199.689 91.8708L201 92.6541L202.667 95.1998L203.898 95.5469L206.973 94.6746L209.604 96.6862L211.182 96.5171L214.953 98.5287L219.17 98.1816L223.646 100.371L229.227 104.662L233.703 104.136L234.497 101.511L236.949 100.371L238.883 97.7365L239.498 97.5674L240.898 98.9649L242.655 97.8255L243.359 99.1429L244.589 98.8759L245.989 99.401L248.067 98.5109L250.055 99.2942L252.952 99.0272L259.934 100.923L261.021 102.41L261.77 105.454L263.188 106.673L264.481 106.335L270.579 108.231L272.416 108.097L273.566 109.317L275.527 109.513L276.276 108.703L277.159 108.774L278.247 109.584L285.629 107.821L288.482 108.231L289.427 108.703L289.837 110.67L290.381 111.275L290.444 113.1L291.192 113.509L290.105 115.334L286.583 118.992L286.717 119.464L290.105 121.226L291.121 121.289L292.209 120.345L292.753 120.416L294.848 122.375L297.228 121.832L298.04 122.241H300.616L301.695 123.051L302.105 124.404L301.838 127.181L303.461 130.635L304.887 131.578H308.48L309.363 132.192L308.881 135.708L309.425 136.999L309.764 141.458L308.953 143.488L307.936 143.559L306.581 141.734V140.444L307.33 138.886L306.849 137.942L304.753 136.18L301.294 135.441L299.395 134.151L297.701 134.694L297.63 135.441L300.001 140.853L301.874 141.636L302.239 142.838L303.443 144.04L306.34 145.971L308.632 146.327L311.886 145.846L313.821 146.211L316.353 147.778L318.163 146.567L324.306 145.971L327.81 146.932L329.37 148.259H330.698L333.115 145.25L336.369 144.405L341.674 144.164L343.965 143.443L345.65 141.636L348.191 140.31L349.636 139.954L351.562 140.31L351.08 142.598L349.992 144.289L350.358 148.615L348.307 153.795L348.067 157.765L347.344 159.456L344.206 161.379L343.359 162.589L340.47 162.705L338.295 164.628L333.231 165.357L329.611 167.761L324.19 168.962L323.708 170.769L325.634 173.662L326.241 176.911L323.227 176.43L319.607 177.392L315.622 177.632L313.821 177.276L312.849 178.958L311.405 179.323L310.317 180.284L310.076 181.37L306.456 181.967L305.859 183.168L305.975 184.735L306.822 186.186L310.682 189.07V190.396L307.785 192.684L305.975 195.336L305.493 196.894L304.138 195.096L301.713 195.033L299.921 194.117L297.211 193.476L296.863 188.34L296.515 187.539L295.151 186.845L295.089 184.655L293.305 183.845L292.378 184.014L292.316 185.687L291.219 186.667L290.987 188.34L286.075 193.191L284.746 198.843H283.881L280.645 197.339L279.147 195.443L277.007 193.823V192.666L279.317 189.844L283.248 187.539L283.944 186.444L283.248 184.014L281.973 182.572L281.34 182.688L278.282 183.783L278.104 184.423L279.317 185.981V186.96L278.737 187.539L273.486 186.782L270.419 186.845L268.163 186.097L266.718 187.245L266.603 189.034L266.148 189.613L264.356 190.36V191.108L263.081 192.381L260.54 191.98L256.26 192.844L255.395 193.885L254.646 196.653L254.762 199.822L255.627 201.496L255.458 203L254.299 205.011L251.579 205.474L249.217 207.976L240.408 207.201L239.258 208.358L239.231 208.919L237.876 209.934L237.706 210.753L236.788 211.358L235.62 211.313L234.042 210.343L231.403 206.311L230.422 205.973L229.762 206.017L229.406 206.729L223.753 208.358L221.613 208.26L213.919 205.866L213.357 206.178L212.697 205.661L213.892 202.662L213.509 200.703L210.049 197.045L208.418 196.992L208.373 194.962L207.473 193.422L204.495 191.731L201.642 192.372L199.564 189.746L198.869 189.444L198.174 189.693L197.425 191.037L195.428 192.319L192.833 193.796L190.185 194.348L189.472 195.265L188.348 195.47L186.414 194.508L186.235 193.52L188.224 193.173L190.542 190.69L190.506 188.927L188.322 186.693L188.018 185.652L188.473 184.005L188.17 181.379L186.877 180.48L184.55 180.685L183.186 181.531L181.358 183.711L179.762 183.409L176.018 181.308L172.505 181.815L169.393 180.24L168.02 177.036L169.063 175.22L170.615 173.787L171.328 171.446L171.257 170.6L169.313 167.814L168.921 166.479L169.857 165.696L169.447 164.272L167.815 164.939L166.389 164.832L165.934 162.224L163.589 159.243L163.384 157.106L162.724 156.804L161.806 157.462L162.064 159.599H161.503L160.281 157.311L158.801 157.053L158.186 157.916L158.855 159.75L158.186 160.667L157.17 160.204L156.875 158.753L157.303 157.587L159.461 155.273L159.318 151.499L159.862 151.151L159.925 148.713L158.703 148.668L157.58 149.888L156.135 150.555L155.636 152.291L154.78 153.038L152.284 153.902L152.435 154.917H154.522L155.493 155.833L155.288 158.949L154.236 160.934L154.789 162.821L154.54 163.622L153.648 163.764L152.997 165.847L151.669 165.491L151.571 167.378L150.599 168.597L148.646 169.942L146.453 169.132L144.625 169.897L142.53 169.283L140.595 170.556L140.649 171.722L141.103 171.864L140.809 173.003L141.103 174.365L142.253 175.638L142.022 176.964L140.551 178.433L142.637 181.077L140.444 184.895L139.525 185.251L137.894 184.486L137.341 181.335L135.656 180.213L133.213 181.281L132.5 183.676L131.43 183.569L130.618 182.759L130.413 179.323L129.192 178.665L128.577 178.611L127.765 179.323L127.221 178.673L124.52 178.406L121.979 180.035L121.667 181.664L119.991 182.278L118.974 182.145L117.191 179.857L115.559 178.94L113.01 178.691L111.182 180.293L108.73 180.009L108.017 178.486L105.984 177.116L104.103 174.321L103.434 174.161L101.294 174.214L100.706 174.65L100.108 176.43L99.0563 177.721L98.5213 176.982L98.5481 173.707L97.3712 172.736V170.974L98.2895 168.339L98.0399 162.669L93.8138 155.914L91.567 155.397L89.6323 156.065L88.7853 155.887L88.7674 156.367L85.8163 156.777L82.25 160.791L80.2082 161.094L78.327 160.177L77.4622 157.729L73.6908 154.89L72.6565 154.943L71.1765 152.504L69.955 152.914L67.2 150.778L65.7824 151.597L64.8106 152.914L63.6872 152.958L61.1908 152.148L59.8088 150.956L59.8623 147.627L62.0556 145.588L62.4657 142.945L66.3352 142.687L68.2699 141.262L70.6683 140.755L72.1394 139.74L74.5378 136.18L76.6776 135.415L78.3537 133.59L80.2885 133.634L81.3495 131.605L81.0552 129.736L81.4564 127.582L82.5353 126.647L85.2368 125.481L86.4761 123.959L86.8149 122.784L89.5609 120.844L90.4079 118.69L91.7007 117.39L94.4557 116.473L96.6936 116.829L97.1751 115.414L97.817 115.307L100.67 116.58L102.141 116.224L103.443 114.07L103.541 112.334L102.444 109.157L103.773 104.937L109.327 107.02L111.209 106.967L112.992 106.308L113.66 104.937L117.271 102.365L119.055 101.804L119.714 100.38L123.539 97.692L126.08 97.4873L128.389 96.0364L129.067 95.2532L129.522 92.476L131.492 91.5236L135.79 91.7818L137.109 92.0488L139.659 93.6243L143.341 93.8824L145.445 92.4849L148.78 92.3959L151.499 91.1676L152.819 91.2566L156.947 92.9211L159.488 95.4668L169.233 97.6564L175.287 100.807L177.658 101.511L180.814 103.869L184.149 103.958L184.942 104.929L187.84 103.869L188.892 102.294L189.24 100.807L188.892 97.6564L189.24 95.9919L191.175 92.9211L191.085 91.5236L192.048 90.7314L193.627 90.9095Z" fill="#F1F3F5" stroke="white" stroke-width="0.445792"/>
<path d="M401.927 71.6566L402.435 72.5734L403.55 72.6713L404.86 73.4813L408.409 71.9681L409.479 70.7042L411.03 72.3776L414.971 73.686L416.219 75.1369L417.806 74.9232L417.949 76.8637L419.464 77.1396L419.669 78.2433L425.064 77.549L425.821 75.0657L426.517 74.7897L431.082 75.3416L431.697 75.9647L430.868 80.6555L431.492 81.0026L431.215 82.5158L431.563 84.9369L433.088 88.8711L432.874 90.7314L436.404 93.0101V95.4223L440.203 96.8731L440.55 97.425V98.5999L439.168 101.43L438.892 103.015L438.268 103.843L437.02 103.914L435.228 107.02L435.299 107.777L437.991 108.462L440.898 107.296L443.109 107.359L444.277 106.05H445.935L447.79 106.504L451.873 108.498L452.908 108.088L456.848 108.64L457.33 109.744L458.578 110.501L460.994 110.848L462.171 110.091L462.795 110.225L463.696 111.052L466.388 111.951L467.494 113.26L470.677 114.159L471.23 115.405L472.059 115.681L473.369 114.711L473.78 114.987L474.199 116.642L473.851 117.612L472.121 118.716L472.059 120.648L471.568 121.609L470.606 122.161L466.246 122.303L464.659 121.885L463.972 122.303L462.724 124.929L463.277 127.475L462.858 128.863L463.134 130.243L464.382 129.753L469.5 130.519L474.127 130.029L474.894 128.863L476.276 128.027L477.863 128.579L478.826 129.478L479.45 130.652L479.664 132.726L479.102 133.688L477.515 134.729L476.891 136.171L477.105 136.937L479.245 138.174L479.521 138.93L478.068 143.247L477.997 144.832L479.245 145.045L480.698 143.666L481.322 143.799L483.391 146.559L488.785 146.63L495.071 145.597L495.971 145.873L497.148 147.182L498.806 147.591L502.194 145.321L510.95 146.425L515.158 145.597L517.102 144.146L518.27 141.939H518.822L520.071 145.731L518.341 150.698L517.859 151.668L514.266 151.525L515.372 151.872L516.335 153.395L518.27 160.64L520.623 161.877L521.729 162.153L523.254 161.744L524.359 162.224L525.251 163.809L524.011 166.506L523.94 168.784L523.316 170.022L521.8 171.615L519.928 172.719L520.071 174.098L520.695 174.374L527.328 171.197L536.315 169.399L537.492 170.369L539.561 171.063L538.455 172.371V175.336L540.809 177.481L544.955 176.991L545.713 176.51L550.072 177.134L552.283 176.858L557.125 178.86L559.336 179.27L562.305 177.267L565.488 176.092L566.112 175.336L569.981 174.784L570.392 175.336L571.497 175.407L570.668 177.685L571.087 179.617L571.845 180.792L573.575 182.171L575.224 182.563L574.475 185.607L573.664 185.848L571.56 188.1L567.244 188.66L564.391 191.348H563.526L561.28 189.372L558.48 189.016L556.064 189.319L554.816 189.016L553.336 187.895H552.168L551.856 188.758L549.823 189.417L549.912 189.871L546.818 190.948L545.588 192.621L543.18 192.203L541.674 192.924L540.809 193.948L537.136 193.743L532.963 194.962L531.536 194.348L527.587 194.811L526.365 194.455L526.481 193.28L523.2 192.924L522.487 191.963L519.999 191.553L514.498 194.348L511.289 192.47L509.505 192.523L507.259 193.636L506.189 193.333L505.172 192.621L503.594 192.372L502.934 190.441L500.643 189.319L497.228 189.417L496.72 188.856L495.499 188.91L492.949 191.607L491.308 192.612L489.766 192.354L489.998 192.977L487.911 192.728L487.037 194.045L486.886 196.618L484.746 196.662L484.345 197.882L481.848 198.754L480.672 202.617L480.984 207.29L479.352 208.154L479.619 209.649L478.692 210.699L478.38 212.123L474.306 215.025L474.413 217.411L475.991 219.698L474.056 223.971L474.341 225.653L473.387 227.175L471.863 227.736L470.846 229.872L469.42 230.531L468.091 232.516L466.718 235.818L466.923 238.666L466.112 240.037L464.427 241.31L464.329 242.227L461.012 244.158L460.45 245.787L458.008 246.855H455.306L453.888 249.703L452.712 248.733L452.56 245.529L450.83 244.363L448.129 243.9L446.854 244.051L445.053 246.09L442.298 248.021L436.449 246.9L433.846 248.938L433.186 248.635L432.116 246.953L430.431 246.544L429.619 247.06L428.603 249.499L427.533 250.772L427.631 253.059L426.882 253.744L425.491 252.703L422.13 252.748L421.524 251.786L421.167 252.142L420.454 251.377L417.904 253.157L415.363 253.255L413.419 254.706L412.706 254.528L411.948 249.953L410.923 248.172V247.309L411.788 244.87L411.538 243.9L413.624 241.514L414.284 239.174L411.556 236.681L409.96 236.014L409.175 234.598L408.409 231.599L408.106 225.697L407.446 224.122L405.404 223.107L402.81 224.229L399.092 226.872L395.017 231.599L393.189 232.578L391.192 232.916L389.766 233.94L387.43 236.174L387.073 237.696L385.317 238.079L383.997 239.761L381.857 241.132L378.291 240.215H376.454L373.298 241.39L371.363 241.185L369.678 239.966L367.494 240.42L366.014 240.064L361.556 235.996L359.06 234.874L360.076 235.337L357.883 234.776L356.902 235.631L354.771 234.723H353.79L352.578 235.586L347.202 235.124L346.221 233.744L344.482 233.628L343.796 233.112L342.69 233.397L341.656 232.302L340.898 232.702L340.443 232.471L340.033 230.629L341.246 227.745L340.782 226.819L339.801 225.893L338.651 225.778L337.091 224.629L334.719 224.051L332.99 224.336L331.019 221.977L329.174 221.914L327.783 220.241L325.759 219.556L323.164 214.358L321.72 214.651L321.025 214.242L319.928 211.126L319.527 210.726H318.198L316.923 209.8L316.576 207.032L314.73 204.842L313.107 204.264L311.315 202.19L309.586 201.958L308.543 198.781L305.832 197.455L305.565 196.894L306.768 194.126L308.819 191.722L310.754 190.396V189.07L306.893 186.186L306.046 184.735L305.93 183.168L306.528 181.967L310.147 181.37L310.388 180.284L311.476 179.323L312.92 178.958L313.883 177.276L315.693 177.632L319.678 177.392L323.289 176.43L326.312 176.911L325.706 173.662L323.771 170.769L324.261 168.962L329.682 167.761L333.302 165.357L338.366 164.628L340.541 162.705L343.43 162.589L344.277 161.379L347.416 159.456L348.138 157.765L348.378 153.795L350.429 148.615L350.064 144.289L351.151 142.598L351.633 140.31L349.707 139.954L348.254 140.31L345.722 141.636L344.036 143.443L341.745 144.164L336.44 144.405L333.186 145.25L330.77 148.259H329.441L327.872 146.932L324.377 145.971L318.225 146.567L316.415 147.778L313.883 146.211L311.957 145.846L308.703 146.327L306.412 145.971L303.514 144.04L302.31 142.838L301.945 141.636L300.072 140.853L297.701 135.441L297.772 134.694L299.466 134.151L301.365 135.441L304.816 136.18L306.92 137.942L307.392 138.886L306.652 140.444V141.734L308.008 143.559L309.024 143.488L309.835 141.458L309.497 136.999L308.953 135.708L309.425 132.192L308.551 131.578H304.958L303.532 130.635L301.9 127.181L302.177 124.404L301.766 123.051L300.688 122.241H298.111L297.291 121.832L294.919 122.375L292.815 120.416L292.28 120.345L291.192 121.289L290.176 121.226L287.332 119.936L286.654 118.992L290.176 115.334L291.112 113.429L293.742 112.824L294.447 113.429H299.003L300.625 112.717L301.642 112.922L303.157 111.408L304.174 113.02L306.608 115.245L307.214 116.66L308.525 116.963L311.975 116.357L312.376 116.865L310.861 121.217L312.171 122.731L313.286 121.921L314.908 117.07L315.925 116.162L317.137 115.654L319.268 116.26L320.989 115.957L321.836 111.052L324.27 109.833L324.876 108.32L324.065 105.285L324.573 104.279L325.786 103.264L327.105 102.961L327.917 101.644L328.728 101.341L328.425 100.434L325.483 99.1162L324.475 98.2083L326.196 90.2152L328.933 90.7225L331.358 90.5178L333.792 89.7167L335.923 90.2152L338.758 89.512L340.88 89.6099L345.303 88.0433L347.835 88.4439L350.26 86.5302L352.391 83.7975L353.906 83.0855L357.25 82.6849L358.872 83.0855L359.782 82.3823L359.381 80.0502L358.168 78.4391L357.455 76.5165L355.431 74.1934L355.128 72.7692L361.913 72.1639L362.929 71.6566L367.485 72.3687L369.509 71.256L370.525 71.5587L371.533 73.0807L374.065 72.9739L376.802 71.0513L377.613 71.9681L378.826 72.3687L381.661 71.6566L386.119 73.2766L388.553 72.2707L391.388 72.1639L392.405 70.8555L394.732 72.4666L396.149 71.9681L397.87 72.2707L399.591 71.7634L400.705 71.256L401.116 70.5439L402.025 70.7487L401.927 71.6566Z" fill="#F1F3F5" stroke="white" stroke-width="0.445792"/>
<path d="M356.768 235.63L356.733 236.129L356.269 236.146V239.458L354.637 241.078L354.744 241.692L358.783 245.297L360.085 247.531L362.118 248.937L361.948 250.157L361.084 250.237L359.452 251.305L358.311 251.145L356.376 249.4L355.69 249.267L349.404 249.4L348.851 249.747L349.038 252.133L346.693 255.568L345.677 255.889L345.008 255.052L343.279 254.812L341.603 255.168L338.134 260.553L335.076 262.307L333.043 265.262L329.218 268.154L327.979 269.65L326.071 270.442H325.162L323.379 269.125L322.148 269.694L320.419 267.647L312.778 269.481L311.663 270.041L311.61 270.549L310.388 271.51L309.015 271.92L306.875 270.549L306.314 270.7L303.88 274.893L300.402 276.041L300.358 276.958L302.587 277.919L302.801 279.343L299.386 283.518L298.726 285.164L299.44 288.956L297.906 290.327L297.095 290.229L295.312 291.6L294.144 296.477L294.545 298.818L297.451 299.735L298.61 300.928L300.509 306.144L301.321 309.802L301.116 312.749H299.288L298.878 313.256L298.37 315.624L296.997 316.692L297.451 317.858L296.792 319.335L296.738 322.032L295.365 322.744L287.822 323.866L285.023 323.706L281.715 322.744L280.181 323.608L277.801 323.456L276.526 324.266L274.538 323.1L270.463 323.198L268.225 324.578L265.675 324.925L263.589 326.047L263.081 326.812L263.179 328.797L261.957 330.47L257.428 330.221L256.412 331.539L252.738 332.865L250.857 332.758L248.013 331.485L246.587 331.539L243.074 332.909L240.426 332.304L237.519 333.319L235.789 332.001L234.72 332.046L232.482 333.523L230.083 332.455L227.186 333.577L224.841 331.69L221.328 330.417L216.335 329.705L215.167 330.88L214.605 332.357L213.589 333.016L212.412 333.07L211.396 331.031L208.792 330.88L207.214 331.743L207.321 333.47L206.965 333.782H203.452L201.053 334.894L198.512 335.099L197.639 335.864L196.756 336.977L195.481 340.591L192.138 346.848L191.255 347L190.649 346.492L189.882 342.985L189.267 342.318L188.197 342.22L187.483 340.235L183.873 339.977L182.696 339.469L181.884 338.508L180.663 332.865L180.048 332.251L178.523 332.357L176.285 333.675H175.215L171.899 336.167L170.633 337.983L165.738 338.553L165.025 339.167L163.696 338.811L162.243 337.253L160.745 334.129L161.209 332.713L163.295 330.773L164.213 328.842L162.439 324.16L161.36 323.581L154.682 325.112L151.526 324.347L150.813 325.157L148.726 324.596L147.148 320.884L147.041 319.567L148.628 316.87L148.709 314.636L148.156 313.496L145.026 311.52L145.891 310.327L146.23 307.755L148.637 303.527L149.386 303.029L154.45 302.53L155.529 301.871L157.027 298.97L160.593 299.459L161.012 300.875L162.011 301.622L163.5 302.281L166.496 302.699L168.564 304.435L171.39 304.026L173.798 304.355L176.954 306.838L180.36 306.927L181.777 308.423L185.014 306.927L186.512 306.758L189.418 307.007L191.326 308.084L194.153 307.257L194.982 306.598L198.049 305.85L200.126 303.358L202.284 303.109L202.952 302.281L207.767 300.705L209.925 299.299L210.174 297.555L211.003 296.976L210.424 294.733L208.436 292.33L207.107 291.422L208.017 290.425L207.107 289.677L206.858 288.849L205.44 288.271L204.7 288.52L203.701 289.766H202.533L201.125 287.941L199.377 283.544L197.059 282.049L193.564 281.39L193.484 280.224L194.893 276.664L194.812 275.587L193.653 273.922L194.402 271.439L194.063 270.522L193.234 269.944L190.497 269.036L193.154 266.713V265.555L192.735 264.389L191.736 263.481L187.92 261.986L187.341 261.318L189.748 259.583V258.915L188.42 257.26L189.329 253.53L188.999 252.533L188.17 251.875H186.922L181.189 253.45L178.149 254.901L175.082 253.005L174.52 252.391L174.671 251.99L177.239 248.973L178.389 248.732L180.119 246.445L179.762 245.225L181.34 243.499L181.653 241.407L184.55 241.514L184.657 240.695L186.957 239.271L187.376 238.594L187.056 237.802L187.974 237.544L189.195 238.309H191.692L191.897 240.695L193.627 242.377L194.598 242.831L195.205 242.324L196.381 242.377L198.37 243.899L199.279 245.225L200.144 245.475L200.456 246.187L202.337 245.679L201.883 243.499L202.088 242.475L203.612 240.686L203.666 237.295L203.336 236.298L201.419 235.968L201.677 234.598L202.337 233.939L200.813 230.53L198.771 229.364L199.235 228.492L201.062 228.545L201.472 227.121L202.391 227.423L204.655 230.272L205.164 232.31L206.537 233.476L207.401 233.174L207.5 231.696L208.32 231.34L209.238 233.022L213.714 234.651L215.604 236.12L217.129 236.324L218.814 235.764L219.473 233.476L219.527 229.667L220.392 229.613L221.052 230.477L223.495 230.539L224.564 229.667L224.466 228.492L225.741 224.326L224.359 222.902L224.466 222.243L225.385 221.682L226.348 222.804L227.212 222.697L230.271 221.531L231.439 218.834L235.709 217.712L236.182 216.902L237.965 215.834L240.666 214.918L245.713 214.205L247.291 213.698L248.414 212.683L249.841 209.986L249.145 207.975L251.508 205.474L254.227 205.011L255.386 202.999L255.556 201.495L254.691 199.821L254.575 196.653L255.324 193.884L256.189 192.843L260.468 191.98L263.009 192.38L264.284 191.107V190.36L266.077 189.612L266.531 189.033L266.647 187.244L268.092 186.096L270.347 186.844L273.414 186.781L278.666 187.538L279.245 186.959V185.98L278.033 184.423L278.211 183.782L281.902 182.571L283.641 184.708L283.873 186.443L283.177 187.538L279.245 189.843L276.936 192.665V193.822L279.076 195.442L280.574 197.338L283.81 198.842H284.675L285.085 198.326L285.486 194.285L286.583 192.264L290.916 188.339L291.148 186.666L292.245 185.687L292.307 184.013L294.384 184.129L295.026 184.654L295.08 186.844L296.444 187.538L296.792 188.339L297.139 193.475L299.85 194.116L301.642 195.033L304.067 195.095L305.69 197.454L308.4 198.78L309.443 201.958L311.182 202.189L312.965 204.263L314.588 204.842L316.433 207.031L316.781 209.799L318.056 210.725H319.384L319.785 211.126L320.882 214.241L321.578 214.651L323.022 214.357L325.625 219.555L327.649 220.24L329.031 221.914L330.886 221.976L332.847 224.335L334.577 224.05L339.668 225.892L341.112 227.744L339.9 230.628L340.301 232.47L340.764 232.702L341.513 232.301L342.557 233.396L343.653 233.111L344.349 233.627L346.078 233.743L347.059 235.123L352.435 235.586L353.648 234.722H354.629L356.768 235.63Z" fill="#F1F3F5" stroke="white" stroke-width="0.445792"/>
<path d="M173.102 40.3777L174.395 40.9385L175.875 42.416L180.404 43.4308L181.982 45.3623L183.561 46.0298L186.877 46.2791L189.062 44.8015L193.341 44.5523L200.376 46.6618L206.233 49.8128L208.061 51.4951L209.63 52.2071L210.397 51.593L215.898 51.2903L221.551 54.0853L223.227 54.2366L225.215 55.3047L229.343 61.2061L232.705 61.7668L233.774 62.1674L234.229 62.8795L235.807 63.3423L239.222 63.7428L241.531 63.0664L243.297 63.5915L248.905 62.9329L253.487 64.7131L259.55 65.3717L260.308 66.7425L260.745 71.1663L263.197 72.3412L270.606 73.6141L271.426 73.5607L273.129 72.4569L274.092 72.9465L274.796 72.6795L275.322 71.193L275.848 67.775L277.079 67.508L278.042 68.4782L278.657 70.1427L279.62 70.3118L280.761 69.3505L281.724 69.6976L282.776 70.7568V72.4213L282.17 74.2549L279.709 77.2368L279.531 80.0406L278.478 81.2689L271.899 83.5476L267.949 82.2302L264.258 82.4973L261.895 84.5979L258.204 83.6366L255.048 84.7759L253.728 84.2419L252.765 84.4199L248.816 87.8379L244.955 86.6095L244.251 87.2237L243.992 91.781L245.214 93.4455L248.111 94.4958L247.674 96.9525L248.111 98.439L245.918 99.4003L244.518 98.8751L243.288 99.1422L242.583 97.8248L240.827 98.9641L239.427 97.5667L238.812 97.7358L236.877 100.37L234.425 101.51L233.632 104.136L230.386 104.661H229.156L223.575 100.37L219.099 98.1808L214.882 98.528L211.11 96.5164L209.532 96.6855L206.902 94.6738L203.826 95.5462L202.596 95.199L200.929 92.6533L198.12 91.3449L195.668 91.4339L191.977 90.7307L191.014 91.5229L191.103 92.9204L189.169 95.9912L188.821 97.6557L189.169 100.807L188.821 102.293L187.769 103.869L184.871 104.928L184.078 103.958L180.743 103.869L177.587 101.51L175.215 100.807L169.161 97.6557L159.416 95.466L156.875 92.9204L152.747 91.2559L151.437 91.1669L148.709 92.3952L145.374 92.4842L143.27 93.8817H141.255L139.588 93.6235L137.038 92.0481L135.718 91.781L131.421 91.5229L129.459 92.4753L127.846 90.3658L126.267 90.1076L124.484 88.9416L122.906 87.1614L119.848 85.3278L115.47 84.8738L114.552 85.1765L112.867 87.3661L111.289 88.0782L110.067 87.8735L108.436 86.8054L106.804 87.6154L105.841 87.5708L105.333 85.6393L104.21 84.8204L103.755 83.147L105.431 78.8212L107.161 78.4651L107.223 77.6106L108.391 77.0944L109.737 75.6524L109.408 74.7534L108.133 73.9968L108.097 73.0711L110.477 71.5045L111.396 67.7394L112.822 67.5347L116.184 69.4128L117.61 69.2615L117.762 67.5881L117.352 66.8226L115.515 64.179L113.224 61.9894L112.822 61.028L113.179 59.7018L114.195 58.4824L115.417 58.1797L120.205 59.0431L123.771 58.0284L123.869 51.593L126.214 51.0589L128.051 49.43L129.522 46.8932L129.78 44.2942L130.85 43.9915L133.445 44.6502L135.335 44.2942L137.983 41.704L140.577 41.6506L141.549 42.1579L143.127 42.2113L146.943 40.9385L149.217 42.6831L151.633 43.4842L152.578 42.1134L154.513 41.2945L155.173 40.1285L158.792 40.4845L165.212 38.1436L170.356 39.007L173.102 40.3777Z" fill="#F1F3F5" stroke="white" stroke-width="0.445792"/>
<path d="M575.224 182.564L573.575 182.172L571.845 180.792L571.087 179.617L570.668 177.686L571.497 175.407L570.392 175.336L569.982 174.784L566.112 175.336L565.488 176.093L562.305 177.267L559.336 179.27L557.125 178.861L552.284 176.858L550.073 177.134L545.713 176.511L544.955 176.992L540.809 177.481L538.455 175.336V172.372L539.561 171.063L537.492 170.369L536.315 169.399L527.328 171.197L520.695 174.375L520.071 174.099L519.928 172.719L521.8 171.615L523.316 170.022L523.94 168.785L524.012 166.506L525.251 163.809L524.359 162.225L523.254 161.744L521.729 162.154L520.624 161.878L518.27 160.64L516.335 153.395L515.372 151.873L514.267 151.526L517.86 151.668L518.341 150.698L520.071 145.731L518.822 141.939H518.27L517.102 144.147L515.158 145.598L510.95 146.425L502.194 145.322L498.806 147.591L497.148 147.182L495.971 145.874L495.071 145.598L488.785 146.63L483.391 146.559L481.323 143.8L480.698 143.666L479.245 145.046L477.997 144.832L478.068 143.248L479.522 138.931L479.245 138.174L477.105 136.937L476.891 136.171L477.515 134.73L479.102 133.688L479.664 132.727L479.45 130.653L478.826 129.478L477.863 128.579L476.276 128.027L474.894 128.864L474.127 130.03L469.5 130.519L464.382 129.754L463.134 130.243L462.858 128.864L463.277 127.475L462.724 124.93L463.972 122.304L464.659 121.885L466.246 122.304L470.606 122.161L471.569 121.609L472.059 120.648L472.121 118.717L473.851 117.613L474.199 116.643L473.78 114.987L473.37 114.711L472.059 115.681L471.23 115.405L470.677 114.159L467.494 113.26L466.388 111.952L463.696 111.053L462.795 110.225L462.171 110.092L460.994 110.848L458.578 110.501L457.33 109.744L456.849 108.641L452.908 108.089L451.874 108.498L447.79 106.504L445.936 106.05H444.277L443.109 107.359L440.898 107.297L437.992 108.463L435.299 107.777L435.228 107.021L437.02 103.914L438.268 103.843L438.892 103.015L439.168 101.431L440.55 98.6003V97.4254L440.203 96.8735L436.405 95.4227V93.0105L432.874 90.7318L433.088 88.8715L431.563 84.9373L431.216 82.5162L431.492 81.003L430.868 80.6559L431.697 75.9651L431.082 75.342L426.517 74.7901L425.821 75.0661L425.064 77.5494L419.67 78.2437L419.465 77.14L417.949 76.8641L417.806 74.9236L416.219 75.1373L414.971 73.6864L411.03 72.378L409.479 70.7046L412.76 68.328L414.079 65.2928L414.891 64.5807H416.21L417.423 63.5749L420.561 63.468L420.668 61.6522L420.16 59.6228L420.668 58.5102L422.692 58.8217L424.921 59.8275L427.248 59.3202L430.69 59.427L431.403 58.617L435.451 57.9049L436.467 57.0949L438.188 56.6944H441.13L442.548 57.2997L443.858 56.8991L444.777 56.2938L445.08 53.9618L447.309 52.956L448.922 51.1313L454.798 47.3928L456.528 45.5681L458.757 45.8708L460.174 45.1676L462.599 44.8649L462.706 42.8355L464.427 42.9423L465.336 43.7523L467.155 43.3429L470.303 43.8502L471.916 43.147L474.047 43.4497L476.374 42.435L480.734 43.0402L482.25 42.8355L486.306 41.0197L488.937 41.3223L489.543 40.6103L490.862 40.2097L500.286 38.9992L502.712 39.3997L503.728 38.8924L505.048 34.6466L507.883 32.1187L510.317 31.5134L511.075 30.3474L511.833 30.9794H516.264L519.785 31.5312L521.765 30.4186L526.865 29.1992L528.692 29.5997L531.34 29.0479L533.025 29.5018L533.89 30.4186L538.937 30.6233L544.331 31.5846L546.925 31.1307L550.955 33.5162L552.614 33.3648L555.056 34.3796L556.073 34.3351L557.571 36.2132L558.471 36.4179L561.422 35.243L564.65 36.4713L565.827 36.6226L568.118 36.0618L569.901 36.4179L572.023 35.599L572.371 34.5309L576 34.6911L582.054 36.2933L583.534 35.5278L584.648 33.7476L585.308 33.5963L587.002 34.4864L592.556 32.8041L595.508 35.4032L597.077 35.6257L598.049 36.8451L599.627 36.7472L601.365 37.6907L602.845 39.7736L605.431 39.6489L606.198 39.1861L607.838 39.8715L609.568 39.7736L610.887 41.1977L613.482 40.6637L619.687 43.0491L625.429 43.2539L627.569 44.322L631.135 42.6931L636.021 41.2244L636.993 41.3223L637.02 42.4172L635.7 44.9629L636.378 48.5411L637.733 51.2915L640.827 55.2435L643.181 56.3739L644.25 58.0562L646.765 58.2521L647.326 58.7149L647.433 59.783L651.579 63.9042L652.596 65.8802L654.272 67.5625L656.055 68.4793L657.116 70.4642L664.463 70.9182L666.906 68.9867L679.272 72.2889L683.605 72.1376L685.281 72.5471L685.968 73.2058L686.681 76.7127L688.669 78.5464L689.507 80.2197L693.127 80.9852L694.17 82.8633L696.462 84.0828L696.631 85.5514L696.051 86.7353L698.548 90.3402L698.904 91.7109L699.671 92.0225L700.768 90.803L701.535 90.6962L703.567 91.257L705.119 92.5743L705.832 97.9149L704.967 101.778L707 104.626L706.724 105.499H704.807L703.113 104.831L702.141 105.143L701.41 106.033L698.191 106.941L690.452 106.033L687.697 106.389L683.721 106.184L680.261 107.047L678.425 108.213L678.131 111.471L676.936 112.593L675.349 117.284L674.199 118.387L673.334 120.675L671.854 121.992L671.141 124.128L668.091 127.181L663.705 128.25L657.794 127.778L655.689 128.196L654.539 127.119L655.77 126.728L655.404 126.193L656.224 125.829L656.01 125.259L656.706 124.467L655.6 122.9L652.399 122.553L649.751 123.879L647.719 126.416L646.292 126.621L645.124 126.06L644.197 126.523L640.479 130.279L640.336 130.947L639.409 131.303L639.106 132.059L637.938 132.825L635.326 132.575L632.794 133.127L630.502 135.37L626.428 136.795L625.759 138.317L622.041 138.771L620.106 139.839L618.484 141.672L618.528 142.1L617.77 142.286L616.745 143.55L615.274 144.067L614.052 145.589H613.027L613.081 145.945L611.574 146.71L609.211 146.657L609.006 147.111L606.456 147.369L605.19 148.081L604.37 151.134L603.148 151.686L601.722 154.178L598.512 154.49L596.221 153.822L595.409 154.285L594.34 156.421L592.556 157.641L588.99 159.216L585.477 159.67L584.916 161.05L584.862 163.64L586.084 165.064L586.342 168.571L585.014 169.381L584.657 171.571L581.964 171.873L578.701 175.389L577.373 176.101L575.224 182.564Z" fill="#F1F3F5" stroke="white" stroke-width="0.445792"/>
</svg>
