<svg width="140" height="81" viewBox="0 0 110 71" fill="none" xmlns="http://www.w3.org/2000/svg">
<path fill-rule="evenodd" clip-rule="evenodd" d="M55.4515 0C84.7461 0 108.64 8.92493 108.64 19.8833C108.64 30.8401 84.7461 39.7666 55.4515 39.7666C26.1569 39.7666 2.24609 30.8401 2.24609 19.8833C2.24609 8.92493 26.1569 0 55.4515 0Z" fill="#0091D4"/>
<path fill-rule="evenodd" clip-rule="evenodd" d="M8.92031 31.8094C5.48752 30.1515 2.18202 29.8443 1.56209 31.1274C0.942163 32.4128 3.23645 34.8108 6.66923 36.4694C10.102 38.1281 13.4091 38.4353 14.029 37.1514C14.6489 35.8668 12.3531 33.468 8.92031 31.8094Z" fill="#0091D4"/>
<path fill-rule="evenodd" clip-rule="evenodd" d="M2.59926 39.1048C4.29484 39.8764 5.91262 39.9887 6.20098 39.3546C6.48934 38.7206 5.34141 37.575 3.64741 36.8042C1.95184 36.0334 0.332478 35.9203 0.0441213 36.5536C-0.24345 37.1876 0.905264 38.334 2.59926 39.1048Z" fill="#0091D4"/>
<path d="M29.9544 10.1739V13.6609L33.9089 9.53672C34.0983 9.33793 34.2609 9.19258 34.3929 9.09672C34.5265 9.00165 34.7056 8.95215 34.9256 8.95215C35.2148 8.95215 35.4513 9.03858 35.6296 9.20751C35.8088 9.37643 35.896 9.58308 35.896 9.82743C35.896 10.1221 35.7459 10.4136 35.4418 10.7035L32.9951 13.0229L35.815 17.0654C36.0146 17.3459 36.1647 17.5919 36.2645 17.8001C36.3643 18.0114 36.413 18.2165 36.413 18.4161C36.413 18.6353 36.3242 18.8286 36.1505 18.9928C35.9769 19.1539 35.7412 19.2356 35.4418 19.2356C35.1629 19.2356 34.9335 19.1759 34.7575 19.0556C34.5807 18.9378 34.433 18.7775 34.3104 18.5787C34.1878 18.3799 34.0794 18.1992 33.9843 18.0381L31.6044 14.3744L29.9552 15.9536V18.0099C29.9552 18.4263 29.8601 18.7351 29.6708 18.9362C29.4798 19.1374 29.2347 19.2371 28.9385 19.2371C28.7648 19.2371 28.6006 19.1908 28.4427 19.1004C28.2832 19.0101 28.163 18.8891 28.0773 18.7351C28.0121 18.6094 27.9752 18.4609 27.9618 18.2943C27.9477 18.1269 27.9414 17.8849 27.9414 17.5667V10.1747C27.9414 9.76929 28.031 9.46365 28.2101 9.25936C28.3885 9.05586 28.6305 8.95293 28.9393 8.95293C29.2402 8.95293 29.4853 9.05351 29.6739 9.25543C29.8585 9.45579 29.9544 9.76379 29.9544 10.1739Z" fill="white"/>
<path d="M39.9343 18.0091V14.8552L37.5049 11.0901C37.2927 10.7491 37.1427 10.4851 37.0539 10.2957C36.9667 10.1064 36.9219 9.94215 36.9219 9.79993C36.9219 9.57051 37.0122 9.37172 37.1906 9.20201C37.3689 9.03622 37.5897 8.95215 37.8537 8.95215C38.1287 8.95215 38.3369 9.03229 38.4807 9.18708C38.6222 9.34186 38.8351 9.65536 39.1195 10.1205L40.9793 13.1376L42.8595 10.1205C42.9703 9.93508 43.0654 9.77715 43.1432 9.65301C43.2202 9.52572 43.3034 9.40708 43.3962 9.29629C43.4904 9.18472 43.5926 9.09908 43.7065 9.04093C43.8204 8.98358 43.9564 8.95293 44.1206 8.95293C44.3728 8.95293 44.5842 9.03701 44.7531 9.20122C44.9244 9.36543 45.0077 9.55715 45.0077 9.77322C45.0077 9.95236 44.966 10.1276 44.8804 10.3036C44.7947 10.4804 44.647 10.7255 44.438 11.0359L41.9481 14.856V18.0099C41.9481 18.4192 41.853 18.7272 41.6637 18.9315C41.4743 19.135 41.2307 19.2371 40.9392 19.2371C40.6399 19.2371 40.3979 19.1374 40.2117 18.9362C40.027 18.7343 39.9343 18.4231 39.9343 18.0091Z" fill="white"/>
<path d="M50.0931 10.6342H48.2333V13.3685H50.0381C50.5213 13.3685 50.9299 13.3268 51.2599 13.2435C51.5899 13.1602 51.8413 13.0157 52.015 12.8153C52.1894 12.6134 52.2774 12.3384 52.2774 11.9832C52.2774 11.7075 52.2075 11.4647 52.066 11.2533C51.927 11.0427 51.7321 10.8856 51.4823 10.7811C51.2489 10.6829 50.7853 10.6342 50.0931 10.6342ZM48.9405 14.8134H48.2333V18.0089C48.2333 18.4277 48.1414 18.7388 47.956 18.9376C47.7705 19.1364 47.527 19.2362 47.2284 19.2362C46.9094 19.2362 46.6587 19.1317 46.4827 18.925C46.3067 18.716 46.2188 18.4127 46.2188 18.0097V10.3576C46.2188 9.92467 46.3162 9.6096 46.511 9.41552C46.7051 9.22067 47.0202 9.12402 47.4531 9.12402H50.7295C51.1805 9.12402 51.5671 9.14131 51.89 9.18138C52.2122 9.21831 52.5005 9.29688 52.7583 9.41552C53.0702 9.54674 53.346 9.73452 53.5872 9.97809C53.8253 10.2232 54.0075 10.5053 54.1301 10.8298C54.2558 11.1512 54.3187 11.4953 54.3187 11.8583C54.3187 12.5985 54.1097 13.1917 53.6901 13.6348C53.2713 14.078 52.6365 14.3922 51.7863 14.5761C52.1438 14.7662 52.4864 15.0491 52.8133 15.4192C53.137 15.79 53.4285 16.1837 53.683 16.6025C53.9376 17.0212 54.1372 17.3992 54.281 17.7347C54.4224 18.0725 54.4939 18.3043 54.4939 18.4292C54.4939 18.5612 54.4522 18.6909 54.3697 18.8205C54.2865 18.947 54.1718 19.05 54.0264 19.1262C53.8802 19.2008 53.7145 19.2377 53.5235 19.2377C53.2996 19.2377 53.1071 19.1851 52.9539 19.0782C52.8007 18.9714 52.6687 18.837 52.5579 18.6752C52.4463 18.5133 52.2955 18.2721 52.1061 17.9547L51.2984 16.6119C51.0085 16.1185 50.7492 15.7445 50.5229 15.4867C50.2935 15.2298 50.0625 15.0538 49.8267 14.9587C49.5934 14.8621 49.2972 14.8134 48.9405 14.8134Z" fill="white"/>
<path d="M64.7985 15.0241V16.9295C64.7985 17.1825 64.7741 17.386 64.7246 17.5369C64.6743 17.6869 64.5832 17.8252 64.4488 17.9462C64.3145 18.0688 64.1455 18.1882 63.9373 18.3006C63.3355 18.6251 62.7564 18.8631 62.2009 19.0116C61.6454 19.1617 61.0388 19.2356 60.3835 19.2356C59.6175 19.2356 58.9229 19.1177 58.2935 18.8844C57.665 18.6471 57.1283 18.3076 56.6867 17.8574C56.242 17.4119 55.901 16.869 55.6645 16.2302C55.4257 15.5938 55.3086 14.8804 55.3086 14.0931C55.3086 13.3223 55.4233 12.6136 55.6527 11.9724C55.8845 11.3289 56.2247 10.7844 56.6718 10.3381C57.1181 9.88872 57.665 9.54536 58.3069 9.30965C58.9472 9.07001 59.6772 8.95215 60.4888 8.95215C61.1606 8.95215 61.7515 9.04251 62.2677 9.22165C62.7847 9.40079 63.2011 9.62472 63.5232 9.89579C63.8454 10.1661 64.0858 10.4529 64.2508 10.7569C64.4119 11.0602 64.4936 11.3289 64.4936 11.5646C64.4936 11.8169 64.4017 12.0329 64.2139 12.2097C64.0245 12.3904 63.7998 12.4792 63.5382 12.4792C63.392 12.4792 63.2537 12.4439 63.1217 12.3771C62.9874 12.3103 62.8758 12.2144 62.7862 12.0926C62.5364 11.7037 62.3274 11.4122 62.1537 11.2126C61.9824 11.0139 61.7515 10.8441 61.4592 10.7098C61.1677 10.5731 60.7945 10.5063 60.3435 10.5063C59.8775 10.5063 59.4611 10.588 59.095 10.7475C58.7288 10.9062 58.4145 11.1404 58.1552 11.4468C57.896 11.7501 57.6964 12.1249 57.5581 12.568C57.4214 13.0119 57.3514 13.503 57.3514 14.0396C57.3514 15.2072 57.6202 16.1037 58.1545 16.7331C58.6919 17.3609 59.4375 17.6751 60.3961 17.6751C60.8644 17.6751 61.3012 17.6154 61.709 17.4929C62.1184 17.3703 62.5332 17.1966 62.9552 16.9696V15.3557H61.3947C61.0192 15.3557 60.7347 15.2999 60.543 15.186C60.3505 15.0721 60.2547 14.8804 60.2547 14.6093C60.2547 14.3877 60.3364 14.2046 60.4967 14.0616C60.6554 13.9155 60.8754 13.844 61.1504 13.844H63.4368C63.7157 13.844 63.9554 13.8691 64.1495 13.9186C64.3435 13.9689 64.5014 14.0805 64.6201 14.2526C64.7387 14.4223 64.7985 14.68 64.7985 15.0241Z" fill="white"/>
<path d="M68.4421 18.0091V14.8552L66.0127 11.0901C65.7998 10.7491 65.6497 10.4851 65.5617 10.2957C65.4737 10.1064 65.4297 9.94215 65.4297 9.79993C65.4297 9.57051 65.52 9.37172 65.6984 9.20201C65.8768 9.03622 66.0968 8.95215 66.3608 8.95215C66.6365 8.95215 66.844 9.03229 66.9878 9.18708C67.13 9.34186 67.3421 9.65536 67.6273 10.1205L69.4855 13.1376L71.3658 10.1205C71.4781 9.93508 71.5732 9.77715 71.651 9.65301C71.728 9.52572 71.8105 9.40708 71.9032 9.29629C71.9975 9.18472 72.1004 9.09908 72.2143 9.04093C72.3283 8.98358 72.4634 8.95293 72.6284 8.95293C72.8798 8.95293 73.0912 9.03701 73.2601 9.20122C73.4314 9.36543 73.5147 9.55715 73.5147 9.77322C73.5147 9.95236 73.4723 10.1276 73.3882 10.3036C73.3025 10.4804 73.1533 10.7255 72.9458 11.0359L70.4567 14.856V18.0099C70.4567 18.4192 70.3624 18.7272 70.1723 18.9315C69.9821 19.135 69.7393 19.2371 69.4478 19.2371C69.1485 19.2371 68.9057 19.1374 68.7203 18.9362C68.534 18.7343 68.4421 18.4231 68.4421 18.0091Z" fill="white"/>
<path d="M74.969 16.7474L80.0793 10.6346H75.6888C75.38 10.6346 75.149 10.567 74.9942 10.4303C74.837 10.2959 74.76 10.116 74.76 9.896C74.76 9.66343 74.837 9.47878 74.9942 9.335C75.149 9.19357 75.38 9.12207 75.6888 9.12207H81.3451C82.079 9.12207 82.4451 9.46464 82.4451 10.1474C82.4451 10.4711 82.3846 10.7336 82.262 10.9276C82.1395 11.1217 81.8943 11.4352 81.5235 11.8689L76.7471 17.5536H82.0122C82.3233 17.5536 82.5559 17.6188 82.7091 17.7461C82.8647 17.8757 82.9401 18.0564 82.9401 18.2851C82.9401 18.5271 82.8639 18.7164 82.7091 18.8563C82.5559 18.9977 82.3225 19.0669 82.0122 19.0669H75.5528C75.1152 19.0669 74.7836 18.9694 74.5644 18.773C74.342 18.5758 74.2305 18.3118 74.2305 17.981C74.2305 17.8694 74.2485 17.7657 74.2831 17.6699C74.32 17.5748 74.3688 17.4844 74.4293 17.4011C74.4921 17.3186 74.5754 17.2118 74.6838 17.0821C74.793 16.9556 74.8881 16.8425 74.969 16.7474Z" fill="white"/>
<path d="M31.2676 27.5027C31.2676 27.8178 31.1906 28.1611 31.0334 28.5296C30.8786 28.8997 30.6327 29.2611 30.2972 29.6147C29.9625 29.9698 29.5351 30.259 29.0157 30.479C28.4956 30.7013 27.8882 30.8129 27.196 30.8129C26.6735 30.8129 26.1966 30.7634 25.766 30.6652C25.3378 30.5654 24.9465 30.4106 24.5968 30.2001C24.2472 29.9879 23.9235 29.7129 23.6296 29.368C23.368 29.0576 23.1433 28.708 22.9586 28.3214C22.7732 27.9341 22.6341 27.52 22.5414 27.0823C22.4495 26.6447 22.4023 26.178 22.4023 25.6869C22.4023 24.8855 22.5178 24.1673 22.752 23.5356C22.9861 22.9008 23.3193 22.3618 23.7514 21.91C24.1875 21.4613 24.6943 21.1188 25.2781 20.8823C25.8618 20.6489 26.4841 20.5303 27.1449 20.5303C27.9503 20.5303 28.6661 20.6906 29.2954 21.0127C29.9224 21.3333 30.4041 21.7293 30.7403 22.2031C31.0735 22.6753 31.2424 23.1216 31.2424 23.5427C31.2424 23.7721 31.1599 23.9764 30.9965 24.1516C30.8354 24.3276 30.639 24.4156 30.4072 24.4156C30.1495 24.4156 29.9546 24.3559 29.8281 24.2333C29.6985 24.1131 29.5547 23.9018 29.3976 23.6032C29.1336 23.1098 28.8248 22.7421 28.4712 22.4969C28.1145 22.2526 27.6768 22.1308 27.1583 22.1308C26.3293 22.1308 25.6709 22.4451 25.1798 23.0728C24.6896 23.703 24.4428 24.5956 24.4428 25.7529C24.4428 26.5261 24.5528 27.1711 24.7697 27.6826C24.985 28.1965 25.293 28.5815 25.6913 28.8337C26.0897 29.0859 26.5548 29.2124 27.0899 29.2124C27.669 29.2124 28.1577 29.0686 28.5584 28.7818C28.9591 28.4951 29.2608 28.0739 29.4628 27.5161C29.5484 27.2544 29.6561 27.0415 29.7833 26.8765C29.9075 26.7107 30.1118 26.6298 30.3923 26.6298C30.6327 26.6298 30.8386 26.7123 31.0098 26.8796C31.1819 27.0446 31.2676 27.2536 31.2676 27.5027Z" fill="white"/>
<path d="M39.9883 25.6446C39.9883 24.9147 39.8704 24.2853 39.6363 23.7502C39.3998 23.2167 39.0643 22.8121 38.6266 22.5395C38.1913 22.2652 37.6916 22.1301 37.1243 22.1301C36.7221 22.1301 36.3512 22.2063 36.0086 22.3564C35.6676 22.5096 35.373 22.7296 35.1263 23.0195C34.8803 23.3087 34.6863 23.6795 34.5433 24.1274C34.4018 24.5768 34.3303 25.0844 34.3303 25.6454C34.3303 26.2103 34.4026 26.7218 34.5433 27.1775C34.6863 27.634 34.8882 28.0135 35.1475 28.3145C35.4076 28.6154 35.7053 28.8401 36.0448 28.9878C36.3795 29.1387 36.7503 29.2117 37.1526 29.2117C37.6696 29.2117 38.1418 29.0821 38.5756 28.8252C39.0077 28.5682 39.3503 28.1707 39.6056 27.6301C39.8618 27.0927 39.9883 26.4319 39.9883 25.6446ZM37.1243 20.5288C38.1568 20.5288 39.0407 20.737 39.7832 21.1566C40.5218 21.5754 41.082 22.1686 41.4615 22.9402C41.8418 23.7102 42.0311 24.6169 42.0311 25.6587C42.0311 26.4272 41.9274 27.1241 41.7192 27.7542C41.511 28.3812 41.2014 28.9273 40.7842 29.3885C40.3678 29.8497 39.8555 30.201 39.2513 30.4469C38.6455 30.6905 37.9501 30.813 37.1676 30.813C36.3897 30.813 35.6928 30.6881 35.0776 30.4359C34.4639 30.186 33.9493 29.8309 33.5376 29.3752C33.1258 28.9187 32.8155 28.3679 32.6041 27.7259C32.3928 27.084 32.2891 26.391 32.2891 25.6454C32.2891 24.8809 32.3983 24.18 32.6183 23.542C32.8383 22.9032 33.1549 22.3611 33.5721 21.9148C33.9886 21.4662 34.4938 21.1228 35.0917 20.8863C35.6857 20.6475 36.3646 20.5288 37.1243 20.5288Z" fill="white"/>
<path d="M45.8874 21.737L49.7594 27.5977V21.682C49.7594 21.2978 49.8419 21.011 50.0061 20.8185C50.1711 20.626 50.3935 20.5286 50.6756 20.5286C50.9655 20.5286 51.1926 20.6245 51.3615 20.8162C51.5281 21.0079 51.6113 21.297 51.6113 21.682V29.5038C51.6113 30.376 51.2499 30.812 50.5247 30.812C50.3448 30.812 50.1821 30.7869 50.0368 30.7327C49.8922 30.6824 49.7563 30.5983 49.6282 30.4852C49.5041 30.3736 49.3854 30.24 49.277 30.0884C49.1678 29.9391 49.0593 29.7835 48.9501 29.624L45.1732 23.8333V29.6586C45.1732 30.0381 45.086 30.3257 44.9092 30.5198C44.7332 30.7146 44.5069 30.812 44.2311 30.812C43.9475 30.812 43.7173 30.7146 43.5468 30.5174C43.3747 30.321 43.2891 30.0334 43.2891 29.6586V21.9869C43.2891 21.6608 43.326 21.4063 43.3983 21.2208C43.4839 21.0165 43.6254 20.85 43.8249 20.7203C44.0237 20.593 44.239 20.5278 44.4708 20.5278C44.6507 20.5278 44.8039 20.5585 44.9328 20.6158C45.0632 20.674 45.1771 20.7549 45.2738 20.8547C45.3712 20.9537 45.4686 21.0818 45.5708 21.2413C45.6721 21.3992 45.7782 21.5634 45.8874 21.737Z" fill="white"/>
<path d="M61.7988 27.5027C61.7988 27.8178 61.7218 28.1611 61.5639 28.5296C61.4099 28.8997 61.1632 29.2611 60.8277 29.6147C60.4937 29.9698 60.0655 30.259 59.547 30.479C59.0268 30.7013 58.4187 30.8129 57.7272 30.8129C57.204 30.8129 56.727 30.7634 56.2972 30.6652C55.8682 30.5654 55.4777 30.4106 55.1281 30.2001C54.7785 29.9879 54.4547 29.7129 54.1601 29.368C53.8992 29.0576 53.6737 28.708 53.4891 28.3214C53.3045 27.9341 53.1646 27.52 53.0727 27.0823C52.98 26.6447 52.9336 26.178 52.9336 25.6869C52.9336 24.8855 53.0491 24.1673 53.2832 23.5356C53.5166 22.9008 53.8505 22.3618 54.2835 21.91C54.7195 21.4613 55.2255 21.1188 55.8085 20.8823C56.3931 20.6489 57.0154 20.5303 57.6754 20.5303C58.4815 20.5303 59.1973 20.6906 59.8259 21.0127C60.4537 21.3333 60.9353 21.7293 61.2708 22.2031C61.604 22.6753 61.7729 23.1216 61.7729 23.5427C61.7729 23.7721 61.6904 23.9764 61.527 24.1516C61.3659 24.3276 61.1687 24.4156 60.9377 24.4156C60.68 24.4156 60.4843 24.3559 60.3586 24.2333C60.229 24.1131 60.0844 23.9018 59.928 23.6032C59.6648 23.1098 59.356 22.7421 59.0017 22.4969C58.6457 22.2526 58.2073 22.1308 57.6895 22.1308C56.8598 22.1308 56.2022 22.4451 55.7111 23.0728C55.22 23.703 54.9741 24.5956 54.9741 25.7529C54.9741 26.5261 55.0825 27.1711 55.301 27.6826C55.5155 28.1965 55.8242 28.5815 56.2226 28.8337C56.621 29.0859 57.0861 29.2124 57.6212 29.2124C58.1995 29.2124 58.6882 29.0686 59.0889 28.7818C59.4896 28.4951 59.7905 28.0739 59.9932 27.5161C60.0797 27.2544 60.1865 27.0415 60.3146 26.8765C60.4387 26.7107 60.643 26.6298 60.9227 26.6298C61.1632 26.6298 61.369 26.7123 61.5411 26.8796C61.7132 27.0446 61.7988 27.2536 61.7988 27.5027Z" fill="white"/>
<path d="M69.6654 22.2513H65.1271V24.6941H69.3063C69.6143 24.6941 69.8429 24.764 69.9938 24.8999C70.1438 25.0398 70.2209 25.2205 70.2209 25.4468C70.2209 25.6731 70.147 25.8562 69.9985 25.9999C69.8484 26.1414 69.6166 26.2129 69.3063 26.2129H65.1271V29.0422H69.8209C70.1376 29.0422 70.3764 29.1169 70.5359 29.2622C70.6986 29.4099 70.7771 29.6048 70.7771 29.8484C70.7771 30.0841 70.6986 30.2742 70.5359 30.4219C70.3764 30.5689 70.1376 30.6427 69.8209 30.6427H64.3469C63.9092 30.6427 63.5918 30.5461 63.4001 30.3512C63.2084 30.1572 63.1133 29.8421 63.1133 29.4092V21.9323C63.1133 21.6432 63.1573 21.4067 63.2421 21.2236C63.3278 21.0413 63.4629 20.9077 63.646 20.8237C63.8291 20.7396 64.0624 20.6987 64.3476 20.6987H69.6669C69.9891 20.6987 70.2271 20.7702 70.3819 20.9117C70.5367 21.0547 70.6153 21.2401 70.6153 21.4719C70.6153 21.7076 70.5367 21.8954 70.3819 22.0392C70.2256 22.1798 69.9883 22.2513 69.6654 22.2513Z" fill="white"/>
<path d="M75.2582 22.2103H73.9013V25.2502H75.2582C75.7328 25.2502 76.1288 25.2015 76.4494 25.1025C76.766 25.0027 77.0096 24.8385 77.1777 24.613C77.3451 24.3867 77.4284 24.0905 77.4284 23.7243C77.4284 23.2835 77.2987 22.9276 77.0418 22.6503C76.7519 22.3556 76.1563 22.2103 75.2582 22.2103ZM75.7477 26.769H73.9013V29.5842C73.9013 29.9873 73.8062 30.2898 73.6169 30.4995C73.4275 30.7078 73.1863 30.8115 72.8964 30.8115C72.5954 30.8115 72.3503 30.7093 72.1649 30.5035C71.9802 30.2968 71.8867 29.9935 71.8867 29.5975V21.9313C71.8867 21.489 71.9896 21.1715 72.1931 20.9814C72.3966 20.7928 72.7188 20.6978 73.1635 20.6978H75.7477C76.5114 20.6978 77.0968 20.7551 77.5085 20.8738C77.9171 20.9869 78.2691 21.1747 78.5653 21.4363C78.8615 21.7011 79.0854 22.0193 79.2386 22.3996C79.3934 22.7791 79.4704 23.2081 79.4704 23.6827C79.4704 24.6978 79.1577 25.4639 78.5346 25.9872C77.91 26.5073 76.9813 26.769 75.7477 26.769Z" fill="white"/>
<path d="M87.45 22.3605H85.2523V29.5844C85.2523 29.9992 85.1604 30.3096 84.9742 30.5107C84.7888 30.7127 84.5476 30.8124 84.2537 30.8124C83.9583 30.8124 83.7139 30.7103 83.5269 30.506C83.3399 30.3025 83.2448 29.9945 83.2448 29.5844V22.3605H81.0472C80.7023 22.3605 80.4469 22.2843 80.2803 22.1334C80.1114 21.9818 80.0273 21.783 80.0273 21.5316C80.0273 21.2739 80.1161 21.0712 80.289 20.9227C80.4634 20.7726 80.7148 20.6987 81.0464 20.6987H87.4484C87.7973 20.6987 88.0542 20.7749 88.2263 20.9305C88.3952 21.0829 88.4808 21.2841 88.4808 21.5324C88.4808 21.783 88.3928 21.9818 88.2216 22.1342C88.0518 22.2843 87.7957 22.3605 87.45 22.3605Z" fill="white"/>
<path d="M34.0246 54.4442C34.5031 54.7585 35.0295 54.9785 35.5952 54.9785C36.3487 54.9785 36.8123 54.5865 36.8123 53.9736C36.8123 52.4509 33.9853 53.2358 33.9853 51.3281C33.9853 50.346 34.7231 49.7339 35.7917 49.7339C36.3888 49.7339 36.9215 49.9303 37.3537 50.2367L37.1494 50.8732C36.7337 50.5589 36.2851 50.3467 35.7595 50.3467C35.0916 50.3467 34.6752 50.7003 34.6752 51.2425C34.6752 52.6646 37.503 51.871 37.503 53.8809C37.503 54.9251 36.7337 55.5765 35.5787 55.5765C34.951 55.5765 34.3224 55.38 33.8203 55.0587L34.0246 54.4442Z" fill="#333333"/>
<path d="M38.7305 49.8271H39.4219V55.4811H38.7305V49.8271Z" fill="#333333"/>
<path d="M40.9297 49.8271H41.691L44.4316 54.1227V49.8271H45.0751V55.4811H44.5094L41.5732 50.8714V55.4811H40.9297V49.8271Z" fill="#333333"/>
<path d="M50.2077 55.0492C49.7991 55.3565 49.2499 55.5757 48.6056 55.5757C47.2314 55.5757 46.2422 54.6022 46.2422 52.7102C46.2422 50.7702 47.2785 49.7339 48.7078 49.7339C49.3049 49.7339 49.792 49.9146 50.1928 50.2124L49.9885 50.841C49.5878 50.5502 49.2028 50.346 48.6771 50.346C47.6557 50.346 46.9336 51.0995 46.9336 52.6709C46.9336 54.2407 47.6557 54.9793 48.6771 54.9793C49.187 54.9793 49.5878 54.7994 50.0034 54.4772L50.2077 55.0492Z" fill="#333333"/>
<path d="M51.293 49.8271H54.78V50.4392H51.9836V52.2613H54.4421V52.8498H51.9836V54.8762H54.8028V55.4811H51.293V49.8271Z" fill="#333333"/>
<path d="M57.168 50.5021L58.44 49.8271H58.9743V55.4811H58.3065V50.5806L57.3958 51.0599L57.168 50.5021Z" fill="#333333"/>
<path d="M60.3836 55.2145L60.5966 54.6331C60.9344 54.8217 61.2951 54.9945 61.7429 54.9945C62.6072 54.9945 63.2114 54.3581 63.2656 52.8747C62.8186 53.3383 62.3 53.5103 61.8058 53.5103C60.8079 53.5103 60.1016 52.7969 60.1016 51.6655C60.1016 50.424 60.9415 49.7334 61.9158 49.7334C63.0857 49.7334 63.9413 50.7383 63.9413 52.6154C63.9413 54.5946 62.9836 55.576 61.6958 55.576C61.1921 55.5752 60.7207 55.4267 60.3836 55.2145ZM63.2656 52.309C63.18 50.9819 62.6606 50.3227 61.8914 50.3227C61.2479 50.3227 60.7616 50.7776 60.7616 51.6254C60.7616 52.4504 61.2165 52.9525 61.9307 52.9525C62.3856 52.9533 62.7942 52.749 63.2656 52.309Z" fill="#333333"/>
<path d="M64.9774 55.2145L65.1903 54.6331C65.5282 54.8217 65.8888 54.9945 66.3367 54.9945C67.201 54.9945 67.8052 54.3581 67.8594 52.8747C67.4123 53.3383 66.8937 53.5103 66.3995 53.5103C65.4017 53.5103 64.6953 52.7969 64.6953 51.6655C64.6953 50.424 65.5352 49.7334 66.5095 49.7334C67.6795 49.7334 68.5351 50.7383 68.5351 52.6154C68.5351 54.5946 67.5773 55.576 66.2895 55.576C65.7859 55.5752 65.3152 55.4267 64.9774 55.2145ZM67.8594 52.309C67.7737 50.9819 67.2544 50.3227 66.4852 50.3227C65.8417 50.3227 65.3553 50.7776 65.3553 51.6254C65.3553 52.4504 65.8102 52.9525 66.5245 52.9525C66.9802 52.9533 67.3887 52.749 67.8594 52.309Z" fill="#333333"/>
<path d="M71.4053 55.5752C70.2432 55.5752 69.3789 54.5773 69.3789 52.6704C69.3789 50.7462 70.2589 49.7334 71.4367 49.7334C72.5988 49.7334 73.4623 50.7313 73.4623 52.6382C73.4623 54.5624 72.583 55.5752 71.4053 55.5752ZM71.4202 50.3305C70.6188 50.3305 70.0617 51.0534 70.0617 52.6633C70.0617 54.2733 70.6188 54.9953 71.4202 54.9953C72.2216 54.9953 72.7787 54.2733 72.7787 52.6633C72.7787 51.0534 72.2216 50.3305 71.4202 50.3305Z" fill="#333333"/>
<path d="M10.8761 66.5747C9.41623 66.5747 8.34766 65.5698 8.34766 63.6699C8.34766 61.7536 9.43116 60.7329 10.9075 60.7329C12.3682 60.7329 13.4367 61.7378 13.4367 63.6377C13.4367 65.5548 12.3524 66.5747 10.8761 66.5747ZM10.8918 61.8007C10.1776 61.8007 9.62758 62.3193 9.62758 63.6699C9.62758 65.0206 10.1776 65.5391 10.8918 65.5391C11.606 65.5391 12.156 65.0206 12.156 63.6699C12.156 62.3193 11.6068 61.8007 10.8918 61.8007Z" fill="#333333"/>
<path d="M14.332 60.8276H15.6748L17.6776 64.1182V60.8276H18.8554V66.4816H17.7876L15.5106 62.7354V66.4816H14.3328L14.332 60.8276Z" fill="#333333"/>
<path d="M20.0781 60.8276H23.793V61.8946H21.3581V63.1204H23.4701V64.1253H21.3581V65.4524H23.8166V66.4816H20.0781V60.8276Z" fill="#333333"/>
<path d="M26.4244 65.0834C26.9194 65.3506 27.4222 65.5548 27.9321 65.5548C28.5049 65.5548 28.8349 65.2956 28.8349 64.9106C28.8349 63.8271 26.2743 64.4163 26.2743 62.5078C26.2743 61.4157 27.1071 60.7329 28.3242 60.7329C28.9363 60.7329 29.502 60.9058 29.9491 61.1729L29.6505 62.2721C29.2498 62.005 28.7791 61.8007 28.3313 61.8007C27.8441 61.8007 27.5542 62.0443 27.5542 62.39C27.5542 63.3949 30.1141 62.7986 30.1141 64.7456C30.1141 65.8762 29.2427 66.5747 27.9463 66.5747C27.3342 66.5747 26.6585 66.4183 26.125 66.1276L26.4244 65.0834Z" fill="#333333"/>
<path d="M31.8749 61.8946H30.375V60.8276H34.6548V61.8946H33.1549V66.4816H31.8749V61.8946Z" fill="#333333"/>
<path d="M37.5714 66.5747C36.1115 66.5747 35.043 65.5698 35.043 63.6699C35.043 61.7536 36.1265 60.7329 37.6028 60.7329C39.0635 60.7329 40.132 61.7378 40.132 63.6377C40.132 65.5548 39.0478 66.5747 37.5714 66.5747ZM37.5879 61.8007C36.8737 61.8007 36.3237 62.3193 36.3237 63.6699C36.3237 65.0206 36.8737 65.5391 37.5879 65.5391C38.3021 65.5391 38.8521 65.0206 38.8521 63.6699C38.8521 62.3193 38.3021 61.8007 37.5879 61.8007Z" fill="#333333"/>
<path d="M41.0312 60.8276H43.1511C44.4782 60.8276 45.2717 61.4397 45.2717 62.6489C45.2717 63.8668 44.4389 64.471 43.0576 64.471H42.2955V66.4816H41.0312V60.8276ZM42.2955 63.4661H43.0576C43.7011 63.4661 44.0075 63.2146 44.0075 62.6725C44.0075 62.1233 43.7011 61.8711 43.0576 61.8711H42.2955V63.4661Z" fill="#333333"/>
<path d="M48.8788 61.8946H47.3789V60.8276H51.6587V61.8946H50.1588V66.4816H48.8788V61.8946Z" fill="#333333"/>
<path d="M54.405 64.2353H53.6751V66.4816H52.418V60.8276H54.7264C55.9906 60.8276 56.7292 61.4004 56.7292 62.524C56.7292 63.3168 56.3599 63.8267 55.6763 64.0789L56.972 66.4824H55.5663L54.405 64.2353ZM54.5936 63.3254C55.1908 63.3254 55.4728 63.1046 55.4728 62.6026C55.4728 62.0919 55.1908 61.8719 54.5936 61.8719H53.6751V63.3254H54.5936Z" fill="#333333"/>
<path d="M62.6756 66.4816H61.3328L61.0028 65.3353H59.1092L58.78 66.4816H57.4844L59.3457 60.8276H60.8535L62.6756 66.4816ZM59.385 64.3846H60.7278L60.0599 62.0439L59.385 64.3846Z" fill="#333333"/>
<path d="M62.5078 60.8276H63.8035L65.0127 64.8717L66.2297 60.8276H67.4704L65.6326 66.4816H64.3063L62.5078 60.8276Z" fill="#333333"/>
<path d="M68.2117 60.8276H71.9266V61.8946H69.4909V63.1204H71.6029V64.1253H69.4909V65.4524H71.9494V66.4816H68.2109L68.2117 60.8276Z" fill="#333333"/>
<path d="M72.8359 60.8276H74.1159V65.4138H76.3229V66.4816H72.8359V60.8276Z" fill="#333333"/>
<path d="M78.7994 65.0834C79.2944 65.3506 79.7972 65.5548 80.3071 65.5548C80.8799 65.5548 81.2099 65.2956 81.2099 64.9106C81.2099 63.8271 78.6493 64.4163 78.6493 62.5078C78.6493 61.4157 79.4821 60.7329 80.6992 60.7329C81.3113 60.7329 81.877 60.9058 82.3241 61.1729L82.0255 62.2721C81.6248 62.005 81.1541 61.8007 80.7063 61.8007C80.2191 61.8007 79.9292 62.0443 79.9292 62.39C79.9292 63.3949 82.4891 62.7986 82.4891 64.7456C82.4891 65.8762 81.6177 66.5747 80.3213 66.5747C79.7092 66.5747 79.0335 66.4183 78.5 66.1276L78.7994 65.0834Z" fill="#333333"/>
<path d="M83.3984 60.8276H84.6784V63.0583H86.5869V60.8276H87.8668V66.4816H86.5869V64.1253H84.6784V66.4816H83.3984V60.8276Z" fill="#333333"/>
<path d="M91.298 66.5747C89.8381 66.5747 88.7695 65.5698 88.7695 63.6699C88.7695 61.7536 89.853 60.7329 91.3294 60.7329C92.79 60.7329 93.8586 61.7378 93.8586 63.6377C93.8586 65.5548 92.7743 66.5747 91.298 66.5747ZM91.3145 61.8007C90.6002 61.8007 90.0502 62.3193 90.0502 63.6699C90.0502 65.0206 90.6002 65.5391 91.3145 65.5391C92.0287 65.5391 92.5787 65.0206 92.5787 63.6699C92.5787 62.3193 92.0287 61.8007 91.3145 61.8007Z" fill="#333333"/>
<path d="M94.7578 60.8276H96.8777C98.2047 60.8276 98.9983 61.4397 98.9983 62.6489C98.9983 63.8668 98.1655 64.471 96.7842 64.471H96.022V66.4816H94.7578V60.8276ZM96.022 63.4661H96.7842C97.4277 63.4661 97.7341 63.2146 97.7341 62.6725C97.7341 62.1233 97.4277 61.8711 96.7842 61.8711H96.022V63.4661Z" fill="#333333"/>
</svg>
