<svg width="140" height="52" viewBox="0 0 140 52" fill="none" xmlns="http://www.w3.org/2000/svg">
<path fill-rule="evenodd" clip-rule="evenodd" d="M70.5754 0.5C107.859 0.5 138.27 11.859 138.27 25.806C138.27 39.751 107.859 51.112 70.5754 51.112C33.2914 51.112 2.85938 39.751 2.85938 25.806C2.85938 11.859 33.2914 0.5 70.5754 0.5Z" fill="#0091D4"/>
<path fill-rule="evenodd" clip-rule="evenodd" d="M11.3531 40.9846C6.98412 38.8746 2.77712 38.4836 1.98812 40.1166C1.19912 41.7526 4.11912 44.8046 8.48812 46.9156C12.8571 49.0266 17.0661 49.4176 17.8551 47.7836C18.6441 46.1486 15.7221 43.0956 11.3531 40.9846Z" fill="#0091D4"/>
<path fill-rule="evenodd" clip-rule="evenodd" d="M3.30815 50.2693C5.46616 51.2513 7.52516 51.3943 7.89216 50.5873C8.25916 49.7803 6.79816 48.3223 4.64216 47.3413C2.48415 46.3603 0.423154 46.2163 0.0561543 47.0223C-0.309846 47.8293 1.15215 49.2883 3.30815 50.2693Z" fill="#0091D4"/>
<path d="M38.1245 13.4486V17.8866L43.1575 12.6376C43.3985 12.3846 43.6055 12.1996 43.7735 12.0776C43.9435 11.9566 44.1715 11.8936 44.4515 11.8936C44.8195 11.8936 45.1205 12.0036 45.3475 12.2186C45.5755 12.4336 45.6865 12.6966 45.6865 13.0076C45.6865 13.3826 45.4955 13.7536 45.1085 14.1226L41.9945 17.0746L45.5835 22.2196C45.8375 22.5766 46.0285 22.8896 46.1555 23.1546C46.2825 23.4236 46.3445 23.6846 46.3445 23.9386C46.3445 24.2176 46.2315 24.4636 46.0105 24.6726C45.7895 24.8776 45.4895 24.9816 45.1085 24.9816C44.7535 24.9816 44.4615 24.9056 44.2375 24.7526C44.0125 24.6026 43.8245 24.3986 43.6685 24.1456C43.5125 23.8926 43.3745 23.6626 43.2535 23.4576L40.2245 18.7946L38.1255 20.8046V23.4216C38.1255 23.9516 38.0045 24.3446 37.7635 24.6006C37.5205 24.8566 37.2085 24.9836 36.8315 24.9836C36.6105 24.9836 36.4015 24.9246 36.2005 24.8096C35.9975 24.6946 35.8445 24.5406 35.7355 24.3446C35.6525 24.1846 35.6055 23.9956 35.5885 23.7836C35.5705 23.5706 35.5625 23.2626 35.5625 22.8576V13.4496C35.5625 12.9336 35.6765 12.5446 35.9045 12.2846C36.1315 12.0256 36.4395 11.8946 36.8325 11.8946C37.2155 11.8946 37.5275 12.0226 37.7675 12.2796C38.0025 12.5346 38.1245 12.9266 38.1245 13.4486Z" fill="white"/>
<path d="M50.8223 23.4206V19.4066L47.7303 14.6146C47.4603 14.1806 47.2693 13.8446 47.1563 13.6036C47.0453 13.3626 46.9883 13.1536 46.9883 12.9726C46.9883 12.6806 47.1033 12.4276 47.3303 12.2116C47.5573 12.0006 47.8383 11.8936 48.1743 11.8936C48.5243 11.8936 48.7893 11.9956 48.9723 12.1926C49.1523 12.3896 49.4233 12.7886 49.7853 13.3806L52.1523 17.2206L54.5453 13.3806C54.6863 13.1446 54.8073 12.9436 54.9063 12.7856C55.0043 12.6236 55.1103 12.4726 55.2283 12.3316C55.3483 12.1896 55.4783 12.0806 55.6233 12.0066C55.7683 11.9336 55.9413 11.8946 56.1503 11.8946C56.4713 11.8946 56.7403 12.0016 56.9553 12.2106C57.1733 12.4196 57.2793 12.6636 57.2793 12.9386C57.2793 13.1666 57.2263 13.3896 57.1173 13.6136C57.0083 13.8386 56.8203 14.1506 56.5543 14.5456L53.3853 19.4076V23.4216C53.3853 23.9426 53.2643 24.3346 53.0233 24.5946C52.7823 24.8536 52.4723 24.9836 52.1013 24.9836C51.7203 24.9836 51.4123 24.8566 51.1753 24.6006C50.9403 24.3436 50.8223 23.9476 50.8223 23.4206Z" fill="white"/>
<path d="M63.7513 14.0343H61.3843V17.5143H63.6813C64.2963 17.5143 64.8163 17.4613 65.2363 17.3553C65.6563 17.2493 65.9763 17.0653 66.1973 16.8103C66.4193 16.5533 66.5313 16.2033 66.5313 15.7513C66.5313 15.4003 66.4423 15.0913 66.2623 14.8223C66.0853 14.5543 65.8373 14.3543 65.5193 14.2213C65.2223 14.0963 64.6323 14.0343 63.7513 14.0343ZM62.2843 19.3533H61.3843V23.4203C61.3843 23.9533 61.2673 24.3493 61.0313 24.6023C60.7953 24.8553 60.4853 24.9823 60.1053 24.9823C59.6993 24.9823 59.3803 24.8493 59.1563 24.5863C58.9323 24.3203 58.8203 23.9343 58.8203 23.4213V13.6823C58.8203 13.1313 58.9443 12.7303 59.1923 12.4833C59.4393 12.2353 59.8403 12.1123 60.3913 12.1123H64.5613C65.1353 12.1123 65.6273 12.1343 66.0383 12.1853C66.4483 12.2323 66.8153 12.3323 67.1433 12.4833C67.5403 12.6503 67.8913 12.8893 68.1983 13.1993C68.5013 13.5113 68.7333 13.8703 68.8893 14.2833C69.0493 14.6923 69.1293 15.1303 69.1293 15.5923C69.1293 16.5343 68.8633 17.2893 68.3293 17.8533C67.7963 18.4173 66.9883 18.8173 65.9063 19.0513C66.3613 19.2933 66.7973 19.6533 67.2133 20.1243C67.6253 20.5963 67.9963 21.0973 68.3203 21.6303C68.6443 22.1633 68.8983 22.6443 69.0813 23.0713C69.2613 23.5013 69.3523 23.7963 69.3523 23.9553C69.3523 24.1233 69.2993 24.2883 69.1943 24.4533C69.0883 24.6143 68.9423 24.7453 68.7573 24.8423C68.5713 24.9373 68.3603 24.9843 68.1173 24.9843C67.8323 24.9843 67.5873 24.9173 67.3923 24.7813C67.1973 24.6453 67.0293 24.4743 66.8883 24.2683C66.7463 24.0623 66.5543 23.7553 66.3133 23.3513L65.2853 21.6423C64.9163 21.0143 64.5863 20.5383 64.2983 20.2103C64.0063 19.8833 63.7123 19.6593 63.4123 19.5383C63.1153 19.4153 62.7383 19.3533 62.2843 19.3533Z" fill="white"/>
<path d="M82.4725 19.6216V22.0466C82.4725 22.3686 82.4415 22.6276 82.3785 22.8196C82.3145 23.0106 82.1985 23.1866 82.0275 23.3406C81.8565 23.4966 81.6415 23.6486 81.3765 23.7916C80.6105 24.2046 79.8735 24.5076 79.1665 24.6966C78.4595 24.8876 77.6875 24.9816 76.8535 24.9816C75.8785 24.9816 74.9945 24.8316 74.1935 24.5346C73.3935 24.2326 72.7105 23.8006 72.1485 23.2276C71.5825 22.6606 71.1485 21.9696 70.8475 21.1566C70.5435 20.3466 70.3945 19.4386 70.3945 18.4366C70.3945 17.4556 70.5405 16.5536 70.8325 15.7376C71.1275 14.9186 71.5605 14.2256 72.1295 13.6576C72.6975 13.0856 73.3935 12.6486 74.2105 12.3486C75.0255 12.0436 75.9545 11.8936 76.9875 11.8936C77.8425 11.8936 78.5945 12.0086 79.2515 12.2366C79.9095 12.4646 80.4395 12.7496 80.8495 13.0946C81.2595 13.4386 81.5655 13.8036 81.7755 14.1906C81.9805 14.5766 82.0845 14.9186 82.0845 15.2186C82.0845 15.5396 81.9675 15.8146 81.7285 16.0396C81.4875 16.2696 81.2015 16.3826 80.8685 16.3826C80.6825 16.3826 80.5065 16.3376 80.3385 16.2526C80.1675 16.1676 80.0255 16.0456 79.9115 15.8906C79.5935 15.3956 79.3275 15.0246 79.1065 14.7706C78.8885 14.5176 78.5945 14.3016 78.2225 14.1306C77.8515 13.9566 77.3765 13.8716 76.8025 13.8716C76.2095 13.8716 75.6795 13.9756 75.2135 14.1786C74.7475 14.3806 74.3475 14.6786 74.0175 15.0686C73.6875 15.4546 73.4335 15.9316 73.2575 16.4956C73.0835 17.0606 72.9945 17.6856 72.9945 18.3686C72.9945 19.8546 73.3365 20.9956 74.0165 21.7966C74.7005 22.5956 75.6495 22.9956 76.8695 22.9956C77.4655 22.9956 78.0215 22.9196 78.5405 22.7636C79.0615 22.6076 79.5895 22.3866 80.1265 22.0976V20.0436H78.1405C77.6625 20.0436 77.3005 19.9726 77.0565 19.8276C76.8115 19.6826 76.6895 19.4386 76.6895 19.0936C76.6895 18.8116 76.7935 18.5786 76.9975 18.3966C77.1995 18.2106 77.4795 18.1196 77.8295 18.1196H80.7395C81.0945 18.1196 81.3995 18.1516 81.6465 18.2146C81.8935 18.2786 82.0945 18.4206 82.2455 18.6396C82.3965 18.8556 82.4725 19.1836 82.4725 19.6216Z" fill="white"/>
<path d="M87.1074 23.4206V19.4066L84.0154 14.6146C83.7444 14.1806 83.5534 13.8446 83.4414 13.6036C83.3294 13.3626 83.2734 13.1536 83.2734 12.9726C83.2734 12.6806 83.3884 12.4276 83.6154 12.2116C83.8424 12.0006 84.1224 11.8936 84.4584 11.8936C84.8094 11.8936 85.0734 11.9956 85.2564 12.1926C85.4374 12.3896 85.7074 12.7886 86.0704 13.3806L88.4354 17.2206L90.8284 13.3806C90.9714 13.1446 91.0924 12.9436 91.1914 12.7856C91.2894 12.6236 91.3944 12.4726 91.5124 12.3316C91.6324 12.1896 91.7634 12.0806 91.9084 12.0066C92.0534 11.9336 92.2254 11.8946 92.4354 11.8946C92.7554 11.8946 93.0244 12.0016 93.2394 12.2106C93.4574 12.4196 93.5634 12.6636 93.5634 12.9386C93.5634 13.1666 93.5094 13.3896 93.4024 13.6136C93.2934 13.8386 93.1034 14.1506 92.8394 14.5456L89.6714 19.4076V23.4216C89.6714 23.9426 89.5514 24.3346 89.3094 24.5946C89.0674 24.8536 88.7584 24.9836 88.3874 24.9836C88.0064 24.9836 87.6974 24.8566 87.4614 24.6006C87.2244 24.3436 87.1074 23.9476 87.1074 23.4206Z" fill="white"/>
<path d="M95.4166 21.8144L101.921 14.0344H96.3326C95.9396 14.0344 95.6456 13.9484 95.4486 13.7744C95.2486 13.6034 95.1506 13.3744 95.1506 13.0944C95.1506 12.7984 95.2486 12.5634 95.4486 12.3804C95.6456 12.2004 95.9396 12.1094 96.3326 12.1094H103.532C104.466 12.1094 104.932 12.5454 104.932 13.4144C104.932 13.8264 104.855 14.1604 104.699 14.4074C104.543 14.6544 104.231 15.0534 103.759 15.6054L97.6796 22.8404H104.381C104.777 22.8404 105.073 22.9234 105.268 23.0854C105.466 23.2504 105.562 23.4804 105.562 23.7714C105.562 24.0794 105.465 24.3204 105.268 24.4984C105.073 24.6784 104.776 24.7664 104.381 24.7664H96.1596C95.6026 24.7664 95.1806 24.6424 94.9016 24.3924C94.6186 24.1414 94.4766 23.8054 94.4766 23.3844C94.4766 23.2424 94.4996 23.1104 94.5436 22.9884C94.5906 22.8674 94.6526 22.7524 94.7296 22.6464C94.8096 22.5414 94.9156 22.4054 95.0536 22.2404C95.1926 22.0794 95.3136 21.9354 95.4166 21.8144Z" fill="white"/>
<path d="M39.7947 35.5034C39.7947 35.9044 39.6967 36.3414 39.4967 36.8104C39.2997 37.2814 38.9867 37.7414 38.5597 38.1914C38.1337 38.6434 37.5897 39.0114 36.9287 39.2914C36.2667 39.5744 35.4937 39.7164 34.6127 39.7164C33.9477 39.7164 33.3407 39.6534 32.7927 39.5284C32.2477 39.4014 31.7497 39.2044 31.3047 38.9364C30.8597 38.6664 30.4477 38.3164 30.0737 37.8774C29.7407 37.4824 29.4547 37.0374 29.2197 36.5454C28.9837 36.0524 28.8067 35.5254 28.6887 34.9684C28.5717 34.4114 28.5117 33.8174 28.5117 33.1924C28.5117 32.1724 28.6587 31.2584 28.9567 30.4544C29.2547 29.6464 29.6787 28.9604 30.2287 28.3854C30.7837 27.8144 31.4287 27.3784 32.1717 27.0774C32.9147 26.7804 33.7067 26.6294 34.5477 26.6294C35.5727 26.6294 36.4837 26.8334 37.2847 27.2434C38.0827 27.6514 38.6957 28.1554 39.1237 28.7584C39.5477 29.3594 39.7627 29.9274 39.7627 30.4634C39.7627 30.7554 39.6577 31.0154 39.4497 31.2384C39.2447 31.4624 38.9947 31.5744 38.6997 31.5744C38.3717 31.5744 38.1237 31.4984 37.9627 31.3424C37.7977 31.1894 37.6147 30.9204 37.4147 30.5404C37.0787 29.9124 36.6857 29.4444 36.2357 29.1324C35.7817 28.8214 35.2247 28.6664 34.5647 28.6664C33.5097 28.6664 32.6717 29.0664 32.0467 29.8654C31.4227 30.6674 31.1087 31.8034 31.1087 33.2764C31.1087 34.2604 31.2487 35.0814 31.5247 35.7324C31.7987 36.3864 32.1907 36.8764 32.6977 37.1974C33.2047 37.5184 33.7967 37.6794 34.4777 37.6794C35.2147 37.6794 35.8367 37.4964 36.3467 37.1314C36.8567 36.7664 37.2407 36.2304 37.4977 35.5204C37.6067 35.1874 37.7437 34.9164 37.9057 34.7064C38.0637 34.4954 38.3237 34.3924 38.6807 34.3924C38.9867 34.3924 39.2487 34.4974 39.4667 34.7104C39.6857 34.9204 39.7947 35.1864 39.7947 35.5034Z" fill="white"/>
<path d="M50.8927 33.138C50.8927 32.209 50.7427 31.408 50.4447 30.727C50.1437 30.048 49.7167 29.533 49.1597 29.186C48.6057 28.837 47.9697 28.665 47.2477 28.665C46.7357 28.665 46.2637 28.762 45.8277 28.953C45.3937 29.148 45.0188 29.428 44.7048 29.797C44.3918 30.165 44.1447 30.637 43.9627 31.207C43.7827 31.779 43.6917 32.425 43.6917 33.139C43.6917 33.858 43.7837 34.509 43.9627 35.089C44.1447 35.67 44.4017 36.153 44.7317 36.536C45.0627 36.919 45.4417 37.205 45.8737 37.393C46.2997 37.585 46.7717 37.678 47.2837 37.678C47.9417 37.678 48.5427 37.513 49.0947 37.186C49.6447 36.859 50.0807 36.353 50.4057 35.665C50.7317 34.981 50.8927 34.14 50.8927 33.138ZM47.2477 26.627C48.5617 26.627 49.6867 26.892 50.6317 27.426C51.5717 27.959 52.2847 28.714 52.7677 29.696C53.2517 30.676 53.4927 31.83 53.4927 33.156C53.4927 34.134 53.3607 35.021 53.0957 35.823C52.8307 36.621 52.4367 37.316 51.9057 37.903C51.3757 38.49 50.7238 38.937 49.9548 39.25C49.1838 39.56 48.2987 39.716 47.3027 39.716C46.3127 39.716 45.4257 39.557 44.6427 39.236C43.8617 38.918 43.2067 38.466 42.6827 37.886C42.1587 37.305 41.7637 36.604 41.4947 35.787C41.2257 34.97 41.0938 34.088 41.0938 33.139C41.0938 32.166 41.2327 31.274 41.5127 30.462C41.7927 29.649 42.1957 28.959 42.7267 28.391C43.2567 27.82 43.8997 27.383 44.6607 27.082C45.4167 26.778 46.2807 26.627 47.2477 26.627Z" fill="white"/>
<path d="M58.4008 28.165L63.3288 35.624V28.095C63.3288 27.606 63.4338 27.241 63.6427 26.996C63.8527 26.751 64.1358 26.627 64.4948 26.627C64.8638 26.627 65.1527 26.749 65.3677 26.993C65.5797 27.237 65.6857 27.605 65.6857 28.095V38.05C65.6857 39.16 65.2258 39.715 64.3028 39.715C64.0738 39.715 63.8668 39.683 63.6818 39.614C63.4978 39.55 63.3248 39.443 63.1618 39.299C63.0038 39.157 62.8528 38.987 62.7148 38.794C62.5758 38.604 62.4378 38.406 62.2988 38.203L57.4918 30.833V38.247C57.4918 38.73 57.3808 39.096 57.1558 39.343C56.9318 39.591 56.6438 39.715 56.2928 39.715C55.9318 39.715 55.6388 39.591 55.4218 39.34C55.2028 39.09 55.0938 38.724 55.0938 38.247V28.483C55.0938 28.068 55.1407 27.744 55.2327 27.508C55.3417 27.248 55.5218 27.036 55.7758 26.871C56.0288 26.709 56.3028 26.626 56.5978 26.626C56.8268 26.626 57.0218 26.665 57.1858 26.738C57.3518 26.812 57.4968 26.915 57.6198 27.042C57.7438 27.168 57.8678 27.331 57.9978 27.534C58.1268 27.735 58.2618 27.944 58.4008 28.165Z" fill="white"/>
<path d="M78.6541 35.5034C78.6541 35.9044 78.5561 36.3414 78.3551 36.8104C78.1591 37.2814 77.8451 37.7414 77.4181 38.1914C76.9931 38.6434 76.4481 39.0114 75.7881 39.2914C75.1261 39.5744 74.3521 39.7164 73.4721 39.7164C72.8061 39.7164 72.1991 39.6534 71.6521 39.5284C71.1061 39.4014 70.6091 39.2044 70.1641 38.9364C69.7191 38.6664 69.3071 38.3164 68.9321 37.8774C68.6001 37.4824 68.3131 37.0374 68.0781 36.5454C67.8431 36.0524 67.6651 35.5254 67.5481 34.9684C67.4301 34.4114 67.3711 33.8174 67.3711 33.1924C67.3711 32.1724 67.5181 31.2584 67.8161 30.4544C68.1131 29.6464 68.5381 28.9604 69.0891 28.3854C69.6441 27.8144 70.2881 27.3784 71.0301 27.0774C71.7741 26.7804 72.5661 26.6294 73.4061 26.6294C74.4321 26.6294 75.3431 26.8334 76.1431 27.2434C76.9421 27.6514 77.5551 28.1554 77.9821 28.7584C78.4061 29.3594 78.6211 29.9274 78.6211 30.4634C78.6211 30.7554 78.5161 31.0154 78.3081 31.2384C78.1031 31.4624 77.8521 31.5744 77.5581 31.5744C77.2301 31.5744 76.9811 31.4984 76.8211 31.3424C76.6561 31.1894 76.4721 30.9204 76.2731 30.5404C75.9381 29.9124 75.5451 29.4444 75.0941 29.1324C74.6411 28.8214 74.0831 28.6664 73.4241 28.6664C72.3681 28.6664 71.5311 29.0664 70.9061 29.8654C70.2811 30.6674 69.9681 31.8034 69.9681 33.2764C69.9681 34.2604 70.1061 35.0814 70.3841 35.7324C70.6571 36.3864 71.0501 36.8764 71.5571 37.1974C72.0641 37.5184 72.6561 37.6794 73.3371 37.6794C74.0731 37.6794 74.6951 37.4964 75.2051 37.1314C75.7151 36.7664 76.0981 36.2304 76.3561 35.5204C76.4661 35.1874 76.6021 34.9164 76.7651 34.7064C76.9231 34.4954 77.1831 34.3924 77.5391 34.3924C77.8451 34.3924 78.1071 34.4974 78.3261 34.7104C78.5451 34.9204 78.6541 35.1864 78.6541 35.5034Z" fill="white"/>
<path d="M88.6632 28.8197H82.8872V31.9288H88.2062C88.5982 31.9288 88.8892 32.0177 89.0812 32.1907C89.2722 32.3687 89.3702 32.5988 89.3702 32.8868C89.3702 33.1748 89.2762 33.4077 89.0872 33.5907C88.8962 33.7707 88.6012 33.8617 88.2062 33.8617H82.8872V37.4628H88.8612C89.2642 37.4628 89.5682 37.5577 89.7712 37.7427C89.9782 37.9307 90.0782 38.1787 90.0782 38.4887C90.0782 38.7887 89.9782 39.0308 89.7712 39.2188C89.5682 39.4058 89.2642 39.4997 88.8612 39.4997H81.8942C81.3372 39.4997 80.9332 39.3768 80.6892 39.1288C80.4452 38.8818 80.3242 38.4808 80.3242 37.9297V28.4137C80.3242 28.0457 80.3802 27.7447 80.4882 27.5117C80.5972 27.2797 80.7692 27.1098 81.0022 27.0028C81.2352 26.8958 81.5322 26.8438 81.8952 26.8438H88.6652C89.0752 26.8438 89.3782 26.9347 89.5752 27.1147C89.7722 27.2967 89.8722 27.5327 89.8722 27.8277C89.8722 28.1277 89.7722 28.3667 89.5752 28.5497C89.3762 28.7287 89.0742 28.8197 88.6632 28.8197Z" fill="white"/>
<path d="M95.7832 28.7678H94.0562V32.6368H95.7832C96.3872 32.6368 96.8912 32.5748 97.2992 32.4488C97.7022 32.3218 98.0122 32.1128 98.2262 31.8258C98.4392 31.5378 98.5452 31.1608 98.5452 30.6948C98.5452 30.1338 98.3802 29.6808 98.0532 29.3278C97.6842 28.9528 96.9262 28.7678 95.7832 28.7678ZM96.4062 34.5698H94.0562V38.1528C94.0562 38.6658 93.9352 39.0508 93.6942 39.3178C93.4532 39.5828 93.1462 39.7148 92.7772 39.7148C92.3942 39.7148 92.0822 39.5848 91.8462 39.3228C91.6112 39.0598 91.4922 38.6738 91.4922 38.1698V28.4128C91.4922 27.8498 91.6232 27.4458 91.8822 27.2038C92.1412 26.9638 92.5512 26.8428 93.1172 26.8428H96.4062C97.3782 26.8428 98.1232 26.9158 98.6472 27.0668C99.1672 27.2108 99.6152 27.4498 99.9922 27.7828C100.369 28.1198 100.654 28.5248 100.849 29.0088C101.046 29.4918 101.144 30.0378 101.144 30.6418C101.144 31.9338 100.746 32.9088 99.9532 33.5748C99.1582 34.2368 97.9762 34.5698 96.4062 34.5698Z" fill="white"/>
<path d="M111.299 28.9588H108.502V38.1528C108.502 38.6808 108.385 39.0758 108.148 39.3318C107.912 39.5888 107.605 39.7158 107.231 39.7158C106.855 39.7158 106.544 39.5858 106.306 39.3258C106.068 39.0668 105.947 38.6748 105.947 38.1528V28.9588H103.15C102.711 28.9588 102.386 28.8618 102.174 28.6698C101.959 28.4768 101.852 28.2237 101.852 27.9037C101.852 27.5757 101.965 27.3177 102.185 27.1287C102.407 26.9377 102.727 26.8438 103.149 26.8438H111.297C111.741 26.8438 112.068 26.9408 112.287 27.1388C112.502 27.3328 112.611 27.5888 112.611 27.9048C112.611 28.2238 112.499 28.4767 112.281 28.6707C112.065 28.8617 111.739 28.9588 111.299 28.9588Z" fill="white"/>
</svg>
