<svg width="100" height="100" viewBox="0 0 100 100" fill="none" xmlns="http://www.w3.org/2000/svg">
<ellipse opacity="0.1" cx="50" cy="97" rx="50" ry="2.99999" fill="#005B7D"/>
<path fill-rule="evenodd" clip-rule="evenodd" d="M45.749 21.6052C45.749 19.6141 47.3632 18 49.3543 18C51.3454 18 52.9595 19.6141 52.9595 21.6052C52.9595 22.6213 52.5392 23.5392 51.8629 24.1946C61.9268 25.1363 69.2125 31.7756 70.1047 41.8129C72.1401 40.6588 74.4931 39.9999 77 39.9999C84.732 39.9999 91 46.2679 91 53.9999C91 60.933 85.9602 66.6891 79.3442 67.8044C79.7588 68.4346 80 69.189 80 69.9998C80 72.2089 78.2091 73.9998 76 73.9998H58.9636C58.5515 78.5882 54.6957 82.1843 50 82.1843C45.3043 82.1843 41.4485 78.5882 41.0364 73.9998H24C21.7909 73.9998 20 72.2089 20 69.9998C20 67.7907 21.7909 65.9998 24 65.9998H27.5127V45.9211C27.5127 34.698 35.9774 25.4519 46.8709 24.2188C46.1798 23.5619 45.749 22.6339 45.749 21.6052ZM68.1747 42.9212C68.1776 42.9859 68.1863 43.0492 68.2002 43.1106C65.0282 45.6772 63 49.6017 63 53.9999C63 59.0925 65.7192 63.55 69.7848 65.9998H29.5127V45.9211C29.5127 34.9626 38.3963 26.0791 49.3548 26.0791C59.9761 26.0791 67.7088 32.5456 68.1747 42.9212ZM43.0709 74.1843C43.5561 77.5766 46.4735 80.1843 50 80.1843C53.5265 80.1843 56.4439 77.5766 56.9291 74.1843H43.0709ZM22 22.8857C22 22.3965 22.3965 22 22.8857 22C23.3749 22 23.7714 22.3965 23.7714 22.8857C23.7714 23.3749 23.3749 23.7714 22.8857 23.7714C22.3965 23.7714 22 23.3749 22 22.8857ZM22.8857 20C21.292 20 20 21.292 20 22.8857C20 24.4794 21.292 25.7714 22.8857 25.7714C24.4795 25.7714 25.7714 24.4794 25.7714 22.8857C25.7714 21.292 24.4795 20 22.8857 20ZM77 41.9999C70.3726 41.9999 65 47.3725 65 53.9999C65 60.6272 70.3726 65.9998 77 65.9998C83.6274 65.9998 89 60.6272 89 53.9999C89 47.3725 83.6274 41.9999 77 41.9999ZM77 44.9999C75.6193 44.9999 74.5 46.1192 74.5 47.4999V53.4999C74.5 54.8806 75.6193 55.9998 77 55.9998C78.3807 55.9998 79.5 54.8806 79.5 53.4999V47.4999C79.5 46.1192 78.3807 44.9999 77 44.9999ZM76.5 47.4999C76.5 47.2237 76.7239 46.9999 77 46.9999C77.2761 46.9999 77.5 47.2237 77.5 47.4999V53.4999C77.5 53.776 77.2761 53.9999 77 53.9999C76.7239 53.9999 76.5 53.776 76.5 53.4999V47.4999ZM74.5 60.4998C74.5 61.8805 75.6193 62.9998 77 62.9998C78.3807 62.9998 79.5 61.8805 79.5 60.4998C79.5 59.1191 78.3807 57.9998 77 57.9998C75.6193 57.9998 74.5 59.1191 74.5 60.4998ZM77 60.9998C76.7239 60.9998 76.5 60.776 76.5 60.4998C76.5 60.2237 76.7239 59.9998 77 59.9998C77.2761 59.9998 77.5 60.2237 77.5 60.4998C77.5 60.776 77.2761 60.9998 77 60.9998ZM33.9247 23.5173C34.1366 23.4195 34.3875 23.5159 34.4793 23.7305L34.5104 23.8031C34.6135 24.0439 34.5055 24.3311 34.2605 24.4442C30.3835 26.2335 28.1022 28.9717 26.7886 31.2552C26.1309 32.3986 25.7153 33.4291 25.4649 34.1703C25.3397 34.5407 25.256 34.8383 25.204 35.0409C25.178 35.1422 25.16 35.2197 25.1487 35.2705C25.1431 35.296 25.1391 35.3147 25.1367 35.3265L25.1358 35.3308L25.1348 35.3361L25.1727 35.167L25.1328 35.346L25.1282 35.3704C25.0815 35.6155 24.8433 35.775 24.5989 35.7248C24.3594 35.6756 24.2038 35.4432 24.2495 35.2031L24.2631 35.1318L24.2634 35.1305L24.2638 35.128L24.2647 35.1238L24.269 35.1024L24.2693 35.1008C24.2728 35.0837 24.2779 35.06 24.2845 35.0299C24.2983 34.9678 24.3191 34.8787 24.3482 34.7654C24.4063 34.5387 24.4976 34.2149 24.6321 33.8168C24.9011 33.0208 25.3436 31.9252 26.0408 30.7132C27.4372 28.2858 29.853 25.3964 33.9247 23.5173ZM22.299 34.7607L22.2849 34.8288C22.0345 36.1431 22.886 37.4147 24.1965 37.6839C25.5339 37.9586 26.8374 37.0858 27.0929 35.7446L27.0961 35.7278L27.1013 35.7037C27.108 35.6732 27.121 35.617 27.1413 35.5378C27.182 35.3791 27.2518 35.1296 27.3596 34.8105C27.576 34.1702 27.9409 33.263 28.5223 32.2525C29.6796 30.2407 31.6799 27.8379 35.0986 26.2601C36.3196 25.6966 36.8813 24.2596 36.349 23.0161L36.318 22.9435C35.7829 21.6934 34.3213 21.1315 33.0866 21.7014C28.5563 23.7922 25.8596 27.0173 24.3072 29.716C23.5336 31.0607 23.0404 32.2797 22.7374 33.1766C22.5855 33.6261 22.4803 33.9979 22.4109 34.2685C22.3761 34.4039 22.3503 34.5143 22.332 34.5968C22.3229 34.638 22.3156 34.6723 22.31 34.6993L22.3093 34.7027L22.274 34.89L22.2917 34.7964L22.3388 34.5665L22.3093 34.7027L22.299 34.7607Z" fill="#005B7D"/>
</svg>
