<svg width="160" height="160" viewBox="0 0 160 160" fill="none" xmlns="http://www.w3.org/2000/svg">
<ellipse opacity="0.1" cx="78.2383" cy="151.782" rx="78.2383" ry="4.6943" fill="#005B7D"/>
<path fill-rule="evenodd" clip-rule="evenodd" d="M14.0827 37.5542C14.0827 27.1838 22.4895 18.777 32.8598 18.777C43.2302 18.777 51.637 27.1838 51.637 37.5542C51.637 47.9245 43.2302 56.3314 32.8598 56.3314C22.4895 56.3314 14.0827 47.9245 14.0827 37.5542ZM32.8598 15.6475C20.7611 15.6475 10.9531 25.4554 10.9531 37.5542C10.9531 48.5904 19.114 57.7205 29.7303 59.2391V106.404C29.7303 113.317 35.3349 118.922 42.2484 118.922H114.228C121.141 118.922 126.746 113.317 126.746 106.404V92.321H128.311C131.767 92.321 134.57 89.5187 134.57 86.0619V78.2381C134.57 74.7813 131.767 71.979 128.311 71.979H126.746V57.8961C126.746 50.9826 121.141 45.378 114.228 45.378H111.098V42.2485C111.098 36.1991 106.194 31.2951 100.145 31.2951H53.8594C51.1663 22.2461 42.7837 15.6475 32.8598 15.6475ZM54.5447 34.4246C54.6909 35.4468 54.7666 36.4916 54.7666 37.5542C54.7666 40.3107 54.2575 42.9482 53.3281 45.378H107.969V42.2485C107.969 37.9275 104.466 34.4246 100.145 34.4246H54.5447ZM51.8358 48.5075C48.0481 55.0555 40.9684 59.4609 32.8598 59.4609V106.404C32.8598 111.589 37.0633 115.792 42.2484 115.792H114.228C119.413 115.792 123.616 111.589 123.616 106.404V92.321H101.71C98.2527 92.321 95.4505 89.5187 95.4505 86.0619V78.2381C95.4505 74.7813 98.2527 71.979 101.71 71.979H123.616V57.8961C123.616 52.711 119.413 48.5075 114.228 48.5075H51.8358ZM58.3062 71.979C56.9407 71.979 55.7741 72.2398 54.7737 72.7252L54.7664 72.7287C53.7633 73.2089 53.0039 73.8639 52.4469 74.6931C51.9214 75.4858 51.637 76.4321 51.637 77.5912C51.637 78.9871 52.0497 79.9579 52.7671 80.6691C53.6066 81.4855 54.8106 82.1564 56.4709 82.6193L56.4718 82.6195L59.0185 83.3312L59.0209 83.3319C59.8853 83.5708 60.6709 83.8518 61.3665 84.1823C62.1358 84.536 62.8163 85.0174 63.334 85.6626C63.9312 86.3981 64.1853 87.2814 64.1959 88.1961L64.1959 88.2305C64.1855 89.2252 63.9027 90.1567 63.3171 90.9633L63.3104 90.9725C62.7452 91.7392 61.9864 92.3033 61.1001 92.6901L61.0915 92.6939C60.194 93.0792 59.2025 93.2486 58.1529 93.2486C57.4692 93.2486 56.5877 93.0148 55.9483 92.8223C55.8994 92.8075 55.8506 92.7926 55.8019 92.7776L55.5628 93.5888C56.3313 93.7823 57.2021 93.8857 58.1858 93.8857C59.811 93.8857 61.0966 93.6129 62.098 93.136C63.1288 92.6406 63.8596 91.9876 64.3568 91.191C64.857 90.3818 65.1287 89.4189 65.1287 88.2498C65.1287 87.3755 64.9774 86.6907 64.7273 86.1533C64.4502 85.5579 64.0818 85.0648 63.6209 84.6577L63.6141 84.6516C63.1141 84.2048 62.541 83.8292 61.8871 83.5269L61.882 83.5246C61.1916 83.2025 60.471 82.9463 59.7187 82.7563L59.6922 82.7493L57.5988 82.1814C57.0829 82.0477 56.5728 81.8835 56.0686 81.6894C55.5124 81.4752 54.9919 81.207 54.513 80.8809L54.4944 80.8681C53.9492 80.4852 53.4963 80.0054 53.158 79.4302L53.1465 79.4103C52.7781 78.7623 52.6245 78.0461 52.6245 77.3179V77.2992H52.6246C52.6353 76.4038 52.882 75.559 53.3854 74.8139C53.892 74.0644 54.5972 73.5156 55.4214 73.1384C56.279 72.7459 57.2388 72.5806 58.2514 72.5806C58.9633 72.5806 59.648 72.6649 60.2895 72.8493L60.505 72.2383C59.8508 72.0689 59.1208 71.979 58.3062 71.979ZM53.4113 69.9077C54.3275 69.4637 55.3059 69.1639 56.3385 69C56.3337 68.9505 56.3313 68.9003 56.3313 68.8495V67.2847C56.3313 66.4205 57.0319 65.72 57.8961 65.72C58.7603 65.72 59.4609 66.4205 59.4609 67.2847V68.8495C59.4609 68.866 59.4606 68.8824 59.4601 68.8988C60.8064 69.0168 62.0573 69.3488 63.1919 69.9194C63.8955 70.2732 64.2265 71.0949 63.9646 71.8376L62.6616 75.5331C62.4948 76.0061 62.1114 76.3705 61.6305 76.513C61.1496 76.6555 60.6295 76.5589 60.2319 76.2531C59.8199 75.9362 59.2051 75.7101 58.2514 75.7101C57.5706 75.7101 57.0777 75.822 56.7237 75.9841C56.3362 76.1614 56.1143 76.3652 55.9785 76.5662C55.8409 76.7697 55.7593 77.0076 55.754 77.3274C55.7552 77.599 55.8093 77.7582 55.8621 77.8547C55.9598 78.0173 56.0939 78.1656 56.2843 78.3008C56.5476 78.4789 56.8487 78.6362 57.1932 78.7689C57.5911 78.9221 57.9903 79.0502 58.3911 79.1538L58.4094 79.1585L58.4093 79.1586L60.4987 79.7255C61.4341 79.9626 62.336 80.2832 63.2027 80.6874C64.1231 81.1131 64.9568 81.655 65.6962 82.3152C66.4892 83.0165 67.1124 83.8612 67.5646 84.8328C68.0445 85.8639 68.2582 87.0168 68.2582 88.2498C68.2582 89.9314 67.8588 91.479 67.0167 92.8399L67.014 92.8442C66.1684 94.2008 64.9584 95.234 63.4509 95.958L63.4469 95.9599C62.2598 96.5258 60.9221 96.8504 59.4601 96.9663C59.4606 96.9826 59.4609 96.9989 59.4609 97.0153V98.58C59.4609 99.4442 58.7603 100.145 57.8961 100.145C57.0319 100.145 56.3313 99.4442 56.3313 98.58V97.0153C56.3313 96.9788 56.3326 96.9427 56.335 96.9069C55.1334 96.76 54.0149 96.4614 52.9922 95.9948C52.2835 95.6714 51.9206 94.8759 52.1409 94.1287L53.2657 90.3137C53.3905 89.8903 53.6884 89.5393 54.0859 89.3473C54.4834 89.1552 54.9435 89.14 55.3528 89.3054C55.653 89.4267 56.2429 89.6426 56.8507 89.8257C57.5213 90.0276 57.9899 90.119 58.1529 90.119C58.8675 90.119 59.4222 90.004 59.8526 89.82C60.3043 89.6221 60.5946 89.3806 60.7879 89.1202C60.957 88.8855 61.0593 88.6031 61.0663 88.2151C61.0596 87.8765 60.9737 87.7201 60.9037 87.6343L60.8945 87.623L60.8946 87.623C60.7439 87.4345 60.4885 87.2222 60.053 87.0229L60.0311 87.0126C59.5328 86.7752 58.9213 86.5511 58.1852 86.3478L58.1807 86.3465L55.6304 85.6339C53.5998 85.0677 51.8852 84.1794 50.5788 82.9064L50.5708 82.8986C49.1591 81.5029 48.5075 79.6784 48.5075 77.5912C48.5075 75.8843 48.9378 74.3203 49.8417 72.9589L49.8458 72.9528C50.7332 71.6299 51.9355 70.615 53.4113 69.9077ZM129.458 118.351C129.458 120.628 131.304 122.473 133.581 122.473H142.061C144.338 122.473 146.184 120.628 146.184 118.351C146.184 116.074 144.338 114.228 142.061 114.228H133.581C131.304 114.228 129.458 116.074 129.458 118.351ZM133.581 119.344C133.032 119.344 132.588 118.899 132.588 118.351C132.588 117.802 133.032 117.358 133.581 117.358H142.061C142.61 117.358 143.054 117.802 143.054 118.351C143.054 118.899 142.61 119.344 142.061 119.344H133.581ZM120.487 135.345C120.487 137.621 122.332 139.467 124.609 139.467C126.886 139.467 128.732 137.621 128.732 135.345V126.864C128.732 124.587 126.886 122.741 124.609 122.741C122.332 122.741 120.487 124.587 120.487 126.864V135.345ZM124.609 136.338C124.061 136.338 123.616 135.893 123.616 135.345V126.864C123.616 126.316 124.061 125.871 124.609 125.871C125.158 125.871 125.602 126.316 125.602 126.864V135.345C125.602 135.893 125.158 136.338 124.609 136.338ZM28.9479 27.3832C28.9479 25.2227 30.6994 23.4713 32.8598 23.4713C35.0203 23.4713 36.7718 25.2227 36.7718 27.3832V36.7718C36.7718 38.9323 35.0203 40.6837 32.8598 40.6837C30.6994 40.6837 28.9479 38.9323 28.9479 36.7718V27.3832ZM32.8598 26.6008C32.4277 26.6008 32.0775 26.9511 32.0775 27.3832V36.7718C32.0775 37.2039 32.4277 37.5542 32.8598 37.5542C33.2919 37.5542 33.6422 37.2039 33.6422 36.7718V27.3832C33.6422 26.9511 33.2919 26.6008 32.8598 26.6008ZM32.8598 51.6371C30.6994 51.6371 28.9479 49.8857 28.9479 47.7252C28.9479 45.5647 30.6994 43.8132 32.8598 43.8132C35.0203 43.8132 36.7718 45.5647 36.7718 47.7252C36.7718 49.8857 35.0203 51.6371 32.8598 51.6371ZM32.0775 47.7252C32.0775 48.1573 32.4277 48.5075 32.8598 48.5075C33.2919 48.5075 33.6422 48.1573 33.6422 47.7252C33.6422 47.2931 33.2919 46.9428 32.8598 46.9428C32.4277 46.9428 32.0775 47.2931 32.0775 47.7252Z" fill="#005B7D"/>
</svg>
