<svg width="19" height="20" viewBox="0 0 19 20" fill="none" xmlns="http://www.w3.org/2000/svg">
<path fill-rule="evenodd" clip-rule="evenodd" d="M1.50501 1.172C0.333008 2.343 0.333008 4.229 0.333008 8V12C0.333008 15.771 0.333008 17.657 1.50501 18.828C2.67701 19.999 4.56201 20 8.33301 20H10.333C14.104 20 15.99 20 17.161 18.828C18.332 17.656 18.333 15.771 18.333 12V8C18.333 4.229 18.333 2.343 17.161 1.172C15.989 0.000999928 14.104 0 10.333 0H8.33301C4.56201 0 2.67601 -1.19209e-07 1.50501 1.172ZM5.33301 7.25C5.1341 7.25 4.94333 7.32902 4.80268 7.46967C4.66203 7.61032 4.58301 7.80109 4.58301 8C4.58301 8.19891 4.66203 8.38968 4.80268 8.53033C4.94333 8.67098 5.1341 8.75 5.33301 8.75H13.333C13.5319 8.75 13.7227 8.67098 13.8633 8.53033C14.004 8.38968 14.083 8.19891 14.083 8C14.083 7.80109 14.004 7.61032 13.8633 7.46967C13.7227 7.32902 13.5319 7.25 13.333 7.25H5.33301ZM5.33301 11.25C5.1341 11.25 4.94333 11.329 4.80268 11.4697C4.66203 11.6103 4.58301 11.8011 4.58301 12C4.58301 12.1989 4.66203 12.3897 4.80268 12.5303C4.94333 12.671 5.1341 12.75 5.33301 12.75H10.333C10.5319 12.75 10.7227 12.671 10.8633 12.5303C11.004 12.3897 11.083 12.1989 11.083 12C11.083 11.8011 11.004 11.6103 10.8633 11.4697C10.7227 11.329 10.5319 11.25 10.333 11.25H5.33301Z" fill="#F8A506"/>
</svg>
