<svg width="21" height="20" viewBox="0 0 21 20" fill="none" xmlns="http://www.w3.org/2000/svg">
<path d="M15.667 1.33989C17.1753 2.21075 18.4299 3.46042 19.3068 4.96519C20.1837 6.46997 20.6524 8.17766 20.6664 9.91923C20.6805 11.6608 20.2395 13.3758 19.387 14.8946C18.5346 16.4133 17.3002 17.6831 15.8062 18.5782C14.3122 19.4733 12.6104 19.9627 10.8691 19.998C9.12782 20.0332 7.40754 19.6131 5.87855 18.7791C4.34955 17.9452 3.06486 16.7264 2.15166 15.2434C1.23845 13.7604 0.728401 12.0646 0.671992 10.3239L0.666992 9.99989L0.671992 9.67589C0.727995 7.94888 1.23054 6.26585 2.13063 4.79089C3.03072 3.31592 4.29765 2.09934 5.80788 1.25977C7.31812 0.420205 9.02014 -0.0137108 10.748 0.000330246C12.4759 0.0143713 14.1706 0.47589 15.667 1.33989ZM14.374 7.29289C14.2018 7.12072 13.9727 7.01729 13.7297 7.002C13.4866 6.98672 13.2464 7.06064 13.054 7.20989L12.96 7.29289L9.66699 10.5849L8.37399 9.29289L8.27999 9.20989C8.08758 9.06075 7.84736 8.98692 7.6044 9.00225C7.36143 9.01757 7.1324 9.12101 6.96025 9.29315C6.78811 9.4653 6.68467 9.69433 6.66935 9.9373C6.65402 10.1803 6.72785 10.4205 6.87699 10.6129L6.95999 10.7069L8.95999 12.7069L9.05399 12.7899C9.22937 12.926 9.44502 12.9998 9.66699 12.9998C9.88896 12.9998 10.1046 12.926 10.28 12.7899L10.374 12.7069L14.374 8.70689L14.457 8.61289C14.6062 8.42049 14.6802 8.18024 14.6649 7.93721C14.6496 7.69419 14.5462 7.46509 14.374 7.29289Z" fill="#A0C73F"/>
</svg>
