<svg width="21" height="22" viewBox="0 0 21 22" fill="none" xmlns="http://www.w3.org/2000/svg">
<path d="M10 22C16.0751 22 21 17.0751 21 11C21 4.92487 16.0751 -1.23162e-07 10 -1.23162e-07C5.92845 -1.23162e-07 2.37356 2.21209 0.471604 5.5C3.43175 5.31235 11.2915 4.85581 12.0959 8.02459C12.1298 8.15825 12.006 8.27127 11.8712 8.24254C10.4811 7.94654 8.24102 7.61361 7.01371 7.68581C7.18739 7.96242 7.65055 8.39984 8.55757 8.63142C9.81538 8.95256 12.4172 8.72791 13.6716 9.38405C14.8096 9.97931 15.8682 10.6699 16.3574 12.8246C16.4023 13.022 16.1191 13.1709 15.9495 13.0602C14.6956 12.2424 12.2635 12.0091 8.98213 12.2595C5.13792 12.5528 3.50143 13.6876 2.57511 14.5367C1.6488 15.3858 0.597604 16.7123 0.597604 16.7123C2.52791 19.8828 6.0167 22 10 22Z" fill="#FF6C00"/>
</svg>
