<svg width="20" height="22" viewBox="0 0 20 22" fill="none" xmlns="http://www.w3.org/2000/svg">
<path d="M13 18.5C12.6898 18.5 12.3873 18.4038 12.1341 18.2247C11.8809 18.0456 11.6894 17.7924 11.586 17.5H8.414C8.31051 17.7923 8.11898 18.0454 7.86576 18.2243C7.61254 18.4033 7.31008 18.4994 7 18.4994C6.68992 18.4994 6.38746 18.4033 6.13424 18.2243C5.88102 18.0454 5.68949 17.7923 5.586 17.5H5.5C5.10218 17.5 4.72064 17.342 4.43934 17.0607C4.15804 16.7794 4 16.3978 4 16V6C4 5.60218 4.15804 5.22064 4.43934 4.93934C4.72064 4.65804 5.10218 4.5 5.5 4.5H7V2.712C7 2.26 7.39 1.5 10 1.5C11.12 1.5 13 1.658 13 2.712V4.5H14.5C14.8978 4.5 15.2794 4.65804 15.5607 4.93934C15.842 5.22064 16 5.60218 16 6V16C16 16.3978 15.842 16.7794 15.5607 17.0607C15.2794 17.342 14.8978 17.5 14.5 17.5H14.414C14.3106 17.7924 14.1191 18.0456 13.8659 18.2247C13.6127 18.4038 13.3102 18.5 13 18.5ZM8 16.5H12C12.1326 16.5 12.2598 16.5527 12.3536 16.6464C12.4473 16.7402 12.5 16.8674 12.5 17C12.5 17.1326 12.5527 17.2598 12.6464 17.3536C12.7402 17.4473 12.8674 17.5 13 17.5C13.1326 17.5 13.2598 17.4473 13.3536 17.3536C13.4473 17.2598 13.5 17.1326 13.5 17C13.5 16.8674 13.5527 16.7402 13.6464 16.6464C13.7402 16.5527 13.8674 16.5 14 16.5H14.5C14.6326 16.5 14.7598 16.4473 14.8536 16.3536C14.9473 16.2598 15 16.1326 15 16V6C15 5.86739 14.9473 5.74021 14.8536 5.64645C14.7598 5.55268 14.6326 5.5 14.5 5.5H8V6.793L8.854 7.646C8.9004 7.69252 8.93718 7.74773 8.96223 7.80847C8.98728 7.86921 9.00012 7.9343 9 8V11C9 11.1326 8.94732 11.2598 8.85355 11.3536C8.75979 11.4473 8.63261 11.5 8.5 11.5H8V14C8 14.1326 7.94732 14.2598 7.85355 14.3536C7.75979 14.4473 7.63261 14.5 7.5 14.5C7.36739 14.5 7.24021 14.4473 7.14645 14.3536C7.05268 14.2598 7 14.1326 7 14V11.5H6.5C6.36739 11.5 6.24021 11.4473 6.14645 11.3536C6.05268 11.2598 6 11.1326 6 11V8C5.99988 7.9343 6.01272 7.86921 6.03777 7.80847C6.06282 7.74773 6.0996 7.69252 6.146 7.646L7 6.793V5.5H5.5C5.36739 5.5 5.24021 5.55268 5.14645 5.64645C5.05268 5.74021 5 5.86739 5 6V16C5 16.1326 5.05268 16.2598 5.14645 16.3536C5.24021 16.4473 5.36739 16.5 5.5 16.5H6C6.13261 16.5 6.25979 16.5527 6.35355 16.6464C6.44732 16.7402 6.5 16.8674 6.5 17C6.5 17.1326 6.55268 17.2598 6.64645 17.3536C6.74021 17.4473 6.86739 17.5 7 17.5C7.13261 17.5 7.25979 17.4473 7.35355 17.3536C7.44732 17.2598 7.5 17.1326 7.5 17C7.5 16.8674 7.55268 16.7402 7.64645 16.6464C7.74021 16.5527 7.86739 16.5 8 16.5ZM7 10.5H8V8.207L7.5 7.707L7 8.207V10.5ZM8 4.5H12V2.81C11.8 2.687 11.107 2.5 10 2.5C8.893 2.5 8.2 2.687 8 2.81V4.5ZM12.5 14.5C12.3674 14.5 12.2402 14.4473 12.1464 14.3536C12.0527 14.2598 12 14.1326 12 14V8C12 7.86739 12.0527 7.74021 12.1464 7.64645C12.2402 7.55268 12.3674 7.5 12.5 7.5C12.6326 7.5 12.7598 7.55268 12.8536 7.64645C12.9473 7.74021 13 7.86739 13 8V14C13 14.1326 12.9473 14.2598 12.8536 14.3536C12.7598 14.4473 12.6326 14.5 12.5 14.5Z" fill="#2B2929"/>
<g clip-path="url(#clip0_1_37485)">
<path d="M11.25 17C11.25 17.4925 11.347 17.9801 11.5355 18.4351C11.7239 18.89 12.0001 19.3034 12.3483 19.6516C12.6966 19.9999 13.11 20.2761 13.5649 20.4645C14.0199 20.653 14.5075 20.75 15 20.75C15.4925 20.75 15.9801 20.653 16.4351 20.4645C16.89 20.2761 17.3034 19.9999 17.6516 19.6516C17.9999 19.3034 18.2761 18.89 18.4645 18.4351C18.653 17.9801 18.75 17.4925 18.75 17C18.75 16.5075 18.653 16.0199 18.4645 15.5649C18.2761 15.11 17.9999 14.6966 17.6516 14.3483C17.3034 14.0001 16.89 13.7239 16.4351 13.5355C15.9801 13.347 15.4925 13.25 15 13.25C14.5075 13.25 14.0199 13.347 13.5649 13.5355C13.11 13.7239 12.6966 14.0001 12.3483 14.3483C12.0001 14.6966 11.7239 15.11 11.5355 15.5649C11.347 16.0199 11.25 16.5075 11.25 17Z" fill="#8ABF2E" stroke="#8ABF2E" stroke-width="2" stroke-linecap="round" stroke-linejoin="round"/>
<path d="M13.75 17.0001L14.5833 17.8334L16.25 16.1667" stroke="white" stroke-linecap="round" stroke-linejoin="round"/>
</g>
<defs>
<clipPath id="clip0_1_37485">
<rect width="10" height="10" fill="white" transform="translate(10 12)"/>
</clipPath>
</defs>
</svg>
