<svg width="30" height="31" viewBox="0 0 30 31" fill="none" xmlns="http://www.w3.org/2000/svg">
<path d="M20.2219 26.5156C18.5906 27.2913 16.8063 27.6917 15 27.6875C8.28003 27.6875 2.81253 22.22 2.81253 15.5C2.81253 12.6172 3.80346 9.89469 5.62503 7.71125V9.875H7.50003V4.25H1.87503V6.125H4.5394C2.21494 8.69349 0.930802 12.0359 0.937526 15.5C0.937526 23.2541 7.24596 29.5625 15 29.5625C17.0853 29.5668 19.145 29.1043 21.0282 28.2087L20.2219 26.5156Z" fill="#005B7D"/>
<path d="M19.6875 8.9375C16.725 8.9375 14.2959 11.2409 14.0831 14.15C13.0525 13.2096 11.7077 12.688 10.3125 12.6875H6.5625V16.4375C6.5625 19.5397 9.08625 22.0625 12.1875 22.0625H14.0625V25.8125H15.9375V18.3125H17.8125C20.9137 18.3125 23.4375 15.7897 23.4375 12.6875V8.9375H19.6875ZM12.1875 20.1875C10.1194 20.1875 8.4375 18.5056 8.4375 16.4375V14.5625H10.3125C12.3806 14.5625 14.0625 16.2444 14.0625 18.3125V18.8619L11.9128 16.7122L10.5872 18.0378L12.7369 20.1875H12.1875ZM21.5625 12.6875C21.5625 14.7556 19.8806 16.4375 17.8125 16.4375H17.2631L19.4128 14.2878L18.0872 12.9622L15.9375 15.1119V14.5625C15.9375 12.4944 17.6194 10.8125 19.6875 10.8125H21.5625V12.6875Z" fill="#005B7D"/>
<path d="M29.0623 15.5C29.0623 7.74597 22.7539 1.43753 14.9998 1.43753C12.9146 1.43319 10.8548 1.89575 8.97168 2.79128L9.77793 4.48441C11.4092 3.70872 13.1935 3.30829 14.9998 3.31253C21.7198 3.31253 27.1873 8.78003 27.1873 15.5C27.1873 18.3828 26.1964 21.1053 24.3748 23.2888V21.125H22.4998V26.75H28.1248V24.875H25.4604C27.7849 22.3065 29.069 18.9642 29.0623 15.5Z" fill="#005B7D"/>
</svg>
